<?xml version="1.0" standalone="no"?>
<!DOCTYPE svg PUBLIC "-//W3C//DTD SVG 20010904//EN"
 "http://www.w3.org/TR/2001/REC-SVG-20010904/DTD/svg10.dtd">
<svg version="1.0" xmlns="http://www.w3.org/2000/svg"
 width="606.000000pt" height="306.000000pt" viewBox="0 0 606.000000 306.000000"
 preserveAspectRatio="xMidYMid meet">
<metadata>
Created by potrace 1.16, written by Peter Selinger 2001-2019
</metadata>
<g transform="translate(0.000000,306.000000) scale(0.100000,-0.100000)"
fill="#000000" stroke="none">
<path d="M2393 2570 c-13 -5 -23 -14 -23 -20 0 -5 -7 -10 -15 -10 -32 0 -45
-66 -45 -221 l0 -149 55 0 55 0 0 85 0 85 455 0 455 0 0 -85 0 -85 55 0 55 0
0 149 c0 149 -13 221 -42 221 -6 0 -17 8 -24 18 -11 16 -48 17 -486 19 -270 1
-483 -2 -495 -7z m705 -99 c2 -13 -2 -28 -10 -32 -15 -10 -398 -12 -422 -3
-16 6 -22 45 -9 58 4 3 104 5 222 4 l216 -3 3 -24z"/>
<path d="M790 1924 l0 -146 -35 30 c-89 79 -234 42 -291 -74 -66 -136 -28
-316 79 -365 78 -35 178 -15 225 46 l22 28 0 -42 0 -41 55 0 55 0 0 355 0 355
-55 0 -55 0 0 -146z m-52 -180 c36 -25 52 -68 52 -139 0 -73 -15 -112 -56
-144 -39 -31 -104 -28 -143 5 -67 56 -67 199 -1 266 23 23 37 28 77 28 28 0
58 -7 71 -16z"/>
<path d="M2290 1715 l0 -355 55 0 55 0 0 355 0 355 -55 0 -55 0 0 -355z"/>
<path d="M1825 1939 c-31 -55 -54 -107 -51 -115 3 -8 19 -14 41 -14 31 0 34
-2 25 -17 -6 -10 -35 -90 -64 -179 l-52 -160 -13 40 c-7 23 -30 97 -52 164
-21 68 -39 128 -39 133 0 5 9 9 20 9 11 0 23 7 26 14 7 19 -103 216 -121 216
-18 0 -128 -197 -121 -216 3 -8 19 -14 41 -14 28 0 37 -5 44 -22 4 -13 40
-112 80 -220 l73 -198 58 0 57 0 56 143 c31 78 69 176 85 217 25 67 32 76 62
86 19 6 36 16 38 22 5 17 -107 212 -123 212 -8 0 -39 -45 -70 -101z"/>
<path d="M2721 2008 c-27 -74 -231 -616 -236 -630 -6 -16 0 -18 53 -18 l59 0
30 83 30 82 134 0 134 0 29 -82 28 -83 59 0 c33 0 59 3 59 7 0 6 -145 402
-185 503 -7 19 -24 63 -37 98 l-23 62 -63 0 c-56 0 -63 -2 -71 -22z m118 -231
c24 -72 46 -138 49 -144 3 -10 -21 -13 -98 -13 -78 0 -101 3 -97 13 2 6 24 72
48 145 24 72 46 132 49 132 3 0 25 -60 49 -133z"/>
<path d="M3190 1695 l0 -335 55 0 55 0 0 120 0 120 73 0 c94 0 160 22 207 71
78 81 80 224 3 296 -50 48 -114 63 -265 63 l-128 0 0 -335z m264 231 c45 -19
66 -52 66 -104 0 -91 -49 -132 -160 -132 l-60 0 0 125 0 125 60 0 c33 0 76 -6
94 -14z"/>
<path d="M3750 1695 l0 -335 55 0 55 0 0 120 0 120 73 0 c94 0 160 22 207 71
78 81 80 224 3 296 -50 48 -114 63 -265 63 l-128 0 0 -335z m264 231 c45 -19
66 -52 66 -104 0 -91 -49 -132 -160 -132 l-60 0 0 125 0 125 60 0 c33 0 76 -6
94 -14z"/>
<path d="M1144 1827 c-112 -54 -160 -187 -118 -328 20 -68 73 -120 138 -139
55 -15 157 -8 210 14 33 14 36 18 36 57 0 35 -2 40 -17 34 -127 -53 -216 -37
-258 45 -31 59 -30 59 148 62 l162 3 -3 64 c-5 129 -67 199 -184 208 -52 3
-72 0 -114 -20z m147 -67 c22 -12 49 -61 49 -90 0 -19 -6 -20 -110 -20 -60 0
-110 2 -110 5 0 21 32 75 55 93 30 24 83 29 116 12z"/>
<path d="M4404 1826 c-112 -52 -160 -185 -118 -327 20 -68 73 -120 138 -139
55 -15 157 -8 210 14 33 14 36 18 36 57 0 35 -2 40 -17 34 -106 -44 -176 -42
-229 8 -19 18 -37 46 -40 64 l-6 32 163 3 164 3 -2 61 c-1 33 -9 76 -17 96
-45 107 -167 148 -282 94z m147 -66 c22 -12 49 -61 49 -90 0 -19 -6 -20 -110
-20 -70 0 -110 4 -110 10 0 21 30 69 56 89 29 23 83 28 115 11z"/>
<path d="M4986 1829 c-16 -12 -37 -36 -47 -53 l-19 -31 0 48 0 47 -55 0 -55 0
0 -240 0 -240 55 0 55 0 0 140 c0 156 9 192 56 229 23 18 38 22 72 18 l43 -5
-3 52 c-3 51 -3 51 -39 54 -24 2 -44 -4 -63 -19z"/>
<path d="M5251 1835 c-76 -24 -119 -84 -107 -149 10 -51 38 -80 108 -110 112
-48 113 -48 113 -86 0 -27 -6 -37 -25 -47 -39 -20 -102 -15 -153 11 l-47 23 0
-48 c0 -64 17 -73 135 -74 76 0 96 4 131 24 50 28 74 67 74 120 0 57 -42 102
-128 136 -79 32 -102 50 -102 81 0 48 88 68 169 39 l41 -14 0 44 c0 42 -1 44
-37 54 -51 14 -118 13 -172 -4z"/>
<path d="M2040 1600 l0 -240 55 0 55 0 0 240 0 240 -55 0 -55 0 0 -240z"/>
<path d="M2320 1001 c0 -239 6 -301 30 -301 6 0 18 -7 26 -15 23 -23 975 -23
998 0 8 8 19 15 25 15 6 0 18 16 26 36 12 29 15 85 15 275 l0 239 -55 0 -55 0
0 -75 0 -75 -455 0 -455 0 0 75 0 75 -50 0 -50 0 0 -249z m609 -47 c41 -34 43
-86 6 -127 -54 -58 -145 -17 -145 65 0 28 7 42 31 62 17 14 41 26 54 26 13 0
37 -12 54 -26z"/>
</g>
</svg>
