<?xml version="1.0" encoding="UTF-8" standalone="no"?>
<!DOCTYPE svg PUBLIC "-//W3C//DTD SVG 1.1//EN" "http://www.w3.org/Graphics/SVG/1.1/DTD/svg11.dtd">
<svg version="1.1" xmlns="http://www.w3.org/2000/svg" xmlns:xlink="http://www.w3.org/1999/xlink" preserveAspectRatio="xMidYMid meet" viewBox="-0.5344518026083054 -0.9543906250000003 421 110.49" width="417" height="106.49"><defs><path d="M110.95 11.71C112.02 17.83 120.67 66.84 121.75 72.96C122.24 75.79 121.68 78.38 120.05 80.71C118.41 83.05 116.17 84.46 113.34 84.96C104.5 86.53 33.72 99.01 24.86 100.56C22.03 101.07 19.44 100.49 17.11 98.87C14.78 97.23 13.36 94.99 12.86 92.16C11.78 86.03 3.14 37.03 2.06 30.91C1.56 28.07 2.13 25.49 3.76 23.15C5.4 20.82 7.63 19.4 10.47 18.91C16.36 17.86 45.85 12.66 98.94 3.31C102.55 3.35 105.14 3.92 106.69 5C109.03 6.64 110.45 8.88 110.95 11.71Z" id="a4lZKH86zt"></path><path d="M110.95 11.71C112.02 17.83 120.67 66.84 121.75 72.96C122.24 75.79 121.68 78.38 120.05 80.71C118.41 83.05 116.17 84.46 113.34 84.96C104.5 86.53 33.72 99.01 24.86 100.56C22.03 101.07 19.44 100.49 17.11 98.87C14.78 97.23 13.36 94.99 12.86 92.16C11.78 86.03 3.14 37.03 2.06 30.91C1.56 28.07 2.13 25.49 3.76 23.15C5.4 20.82 7.63 19.4 10.47 18.91C16.36 17.86 45.85 12.66 98.94 3.31C102.55 3.35 105.14 3.92 106.69 5C109.03 6.64 110.45 8.88 110.95 11.71Z" id="d1A39MrFNc"></path><path d="M109.53 10.29C110.61 16.42 119.25 65.41 120.33 71.53C120.83 74.37 120.26 76.95 118.63 79.29C116.99 81.63 114.76 83.05 111.91 83.55C103.07 85.11 32.29 97.58 23.45 99.15C20.61 99.65 18.03 99.08 15.69 97.44C13.36 95.81 11.93 93.58 11.44 90.74C10.36 84.61 1.72 35.62 0.64 29.49C0.14 26.66 0.71 24.07 2.34 21.74C3.97 19.4 6.21 17.98 9.04 17.48C14.95 16.45 44.44 11.25 97.52 1.88C101.13 1.93 103.72 2.49 105.28 3.59C107.61 5.23 109.02 7.45 109.53 10.29Z" id="e7JMS1Ti4j"></path><path d="M109.53 10.29C110.61 16.42 119.25 65.41 120.33 71.53C120.83 74.37 120.26 76.95 118.63 79.29C116.99 81.63 114.76 83.05 111.91 83.55C103.07 85.11 32.29 97.58 23.45 99.15C20.61 99.65 18.03 99.08 15.69 97.44C13.36 95.81 11.93 93.58 11.44 90.74C10.36 84.61 1.72 35.62 0.64 29.49C0.14 26.66 0.71 24.07 2.34 21.74C3.97 19.4 6.21 17.98 9.04 17.48C14.95 16.45 44.44 11.25 97.52 1.88C101.13 1.93 103.72 2.49 105.28 3.59C107.61 5.23 109.02 7.45 109.53 10.29Z" id="a9hIqkrEdg"></path><path d="M101.33 9.21C100.58 8.69 99.71 8.52 98.71 8.69C89.87 10.24 19.09 22.73 10.25 24.29C9.25 24.47 8.49 24.93 7.97 25.67C7.45 26.42 7.27 27.3 7.45 28.29C8.52 34.41 17.16 83.41 18.25 89.54C18.42 90.53 18.88 91.29 19.63 91.81C20.39 92.34 21.26 92.51 22.24 92.34C31.1 90.78 101.88 78.3 110.72 76.74C111.71 76.56 112.47 76.1 113 75.35C113.52 74.61 113.7 73.73 113.52 72.74C111.36 60.49 103.8 17.61 102.72 11.49C102.55 10.49 102.09 9.74 101.33 9.21Z" id="a8Idcz5W7y"></path><path d="M101.33 9.21C100.58 8.69 99.71 8.52 98.71 8.69C89.87 10.24 19.09 22.73 10.25 24.29C9.25 24.47 8.49 24.93 7.97 25.67C7.45 26.42 7.27 27.3 7.45 28.29C8.52 34.41 17.16 83.41 18.25 89.54C18.42 90.53 18.88 91.29 19.63 91.81C20.39 92.34 21.26 92.51 22.24 92.34C31.1 90.78 101.88 78.3 110.72 76.74C111.71 76.56 112.47 76.1 113 75.35C113.52 74.61 113.7 73.73 113.52 72.74C111.36 60.49 103.8 17.61 102.72 11.49C102.55 10.49 102.09 9.74 101.33 9.21Z" id="a1fkDqfSKV"></path><path d="M70.03 64.2C70 64.03 69.75 62.66 69.72 62.49C69.59 61.78 69.73 61.14 70.15 60.55C70.56 59.97 71.12 59.61 71.82 59.49C74.03 59.1 91.73 55.98 93.95 55.58C94.65 55.46 95.3 55.6 95.88 56.02C96.47 56.43 96.82 56.98 96.95 57.69C96.98 57.86 97.21 59.22 97.24 59.39C97.37 60.1 97.23 60.74 96.82 61.33C96.41 61.92 95.85 62.27 95.14 62.39C93.67 62.65 86.3 63.96 73.03 66.29C72.12 66.28 71.47 66.14 71.09 65.87C70.5 65.46 70.15 64.9 70.03 64.2ZM67.63 50.59C67.6 50.41 67.36 49.05 67.33 48.88C67.19 48.17 67.34 47.52 67.75 46.94C68.16 46.36 68.71 46 69.42 45.88C71.63 45.49 89.33 42.36 91.54 41.98C92.25 41.85 92.89 41.99 93.48 42.4C94.07 42.82 94.42 43.37 94.55 44.08C94.58 44.25 94.81 45.61 94.84 45.78C94.97 46.49 94.83 47.13 94.42 47.72C94.01 48.31 93.45 48.66 92.74 48.78C91.27 49.04 83.9 50.34 70.63 52.68C69.72 52.67 69.07 52.53 68.68 52.26C68.1 51.85 67.75 51.29 67.63 50.59ZM65.22 36.97C65.19 36.8 64.96 35.44 64.93 35.27C64.8 34.57 64.94 33.91 65.35 33.33C65.76 32.75 66.31 32.4 67.02 32.27C69.23 31.88 86.93 28.75 89.14 28.37C89.85 28.24 90.49 28.38 91.09 28.79C91.67 29.21 92.02 29.76 92.14 30.47C92.17 30.64 92.41 32.01 92.44 32.17C92.57 32.88 92.43 33.52 92.02 34.11C91.61 34.7 91.06 35.05 90.34 35.18C88.87 35.43 81.5 36.73 68.23 39.07C67.33 39.06 66.67 38.92 66.28 38.65C65.7 38.24 65.35 37.68 65.22 36.97Z" id="aDSDaP8J6"></path><path d="M70.03 64.2C70 64.03 69.75 62.66 69.72 62.49C69.59 61.78 69.73 61.14 70.15 60.55C70.56 59.97 71.12 59.61 71.82 59.49C74.03 59.1 91.73 55.98 93.95 55.58C94.65 55.46 95.3 55.6 95.88 56.02C96.47 56.43 96.82 56.98 96.95 57.69C96.98 57.86 97.21 59.22 97.24 59.39C97.37 60.1 97.23 60.74 96.82 61.33C96.41 61.92 95.85 62.27 95.14 62.39C93.67 62.65 86.3 63.96 73.03 66.29C72.12 66.28 71.47 66.14 71.09 65.87C70.5 65.46 70.15 64.9 70.03 64.2ZM67.63 50.59C67.6 50.41 67.36 49.05 67.33 48.88C67.19 48.17 67.34 47.52 67.75 46.94C68.16 46.36 68.71 46 69.42 45.88C71.63 45.49 89.33 42.36 91.54 41.98C92.25 41.85 92.89 41.99 93.48 42.4C94.07 42.82 94.42 43.37 94.55 44.08C94.58 44.25 94.81 45.61 94.84 45.78C94.97 46.49 94.83 47.13 94.42 47.72C94.01 48.31 93.45 48.66 92.74 48.78C91.27 49.04 83.9 50.34 70.63 52.68C69.72 52.67 69.07 52.53 68.68 52.26C68.1 51.85 67.75 51.29 67.63 50.59ZM65.22 36.97C65.19 36.8 64.96 35.44 64.93 35.27C64.8 34.57 64.94 33.91 65.35 33.33C65.76 32.75 66.31 32.4 67.02 32.27C69.23 31.88 86.93 28.75 89.14 28.37C89.85 28.24 90.49 28.38 91.09 28.79C91.67 29.21 92.02 29.76 92.14 30.47C92.17 30.64 92.41 32.01 92.44 32.17C92.57 32.88 92.43 33.52 92.02 34.11C91.61 34.7 91.06 35.05 90.34 35.18C88.87 35.43 81.5 36.73 68.23 39.07C67.33 39.06 66.67 38.92 66.28 38.65C65.7 38.24 65.35 37.68 65.22 36.97Z" id="c59Is8Zx0W"></path><path d="M130.04 48.55C129.27 47.67 128.88 46.34 128.88 44.51C128.88 41.98 129.65 38.57 131.19 34.29C132.71 30.02 134.73 25.72 137.23 21.41C135.34 21.52 133.85 21.8 132.74 22.26C131.65 22.71 130.93 23.41 130.59 24.36C130.74 24.36 130.9 24.55 131.07 24.92C131.24 25.3 131.33 25.7 131.33 26.11C131.33 26.8 131.03 27.34 130.41 27.74C129.81 28.13 129.05 28.33 128.15 28.33C127.08 28.33 126.23 28.05 125.59 27.48C124.94 26.92 124.62 26.09 124.62 25.04C124.62 23.75 125.12 22.58 126.13 21.52C127.13 20.45 128.53 19.61 130.3 18.99C132.08 18.36 134.05 18.05 136.21 18.05C137 18.05 137.99 18.11 139.16 18.22C142.27 13.3 145.55 9.28 149.02 6.15C152.48 3.03 155.78 1.47 158.92 1.47C160.75 1.47 162.25 1.73 163.41 2.26C162.82 5.05 159.85 18.99 154.5 44.06C153.68 44.06 147.13 44.06 146.32 44.06C148.95 31.69 150.4 24.82 150.69 23.44C149.3 22.8 148 22.33 146.83 22.03C145.65 21.73 144.41 21.52 143.08 21.41C140.92 26.06 139.16 30.82 137.77 35.69C136.39 40.55 135.69 44.44 135.69 47.35C135.69 48.8 135.97 49.85 136.5 50.54C135.09 50.54 133.86 50.42 132.8 50.19C131.74 49.97 130.83 49.42 130.04 48.55ZM144.28 18.96C147 19.49 149.31 20.15 151.2 20.94C151.42 19.92 152.52 14.77 154.5 5.5C152.29 7.16 150.59 8.78 149.42 10.35C147.65 12.72 145.94 15.59 144.28 18.96ZM161.59 37.59C161.59 36.64 161.75 35.41 162.06 33.89C162.31 32.68 163.6 26.61 165.91 15.66C166.73 15.66 173.27 15.66 174.09 15.66C171.64 27.25 170.28 33.69 170.01 34.98C169.88 35.43 169.83 35.9 169.83 36.39C169.83 38.06 170.4 38.89 171.54 38.89C172.6 38.89 173.51 38.45 174.26 37.56C175.02 36.67 175.63 35.45 176.08 33.89C176.34 32.68 177.62 26.61 179.94 15.66C180.76 15.66 187.31 15.66 188.12 15.66C185.66 27.25 184.31 33.69 184.03 34.98C183.84 35.92 183.75 36.6 183.75 37.02C183.75 38.27 184.39 38.89 185.67 38.89C187.42 38.89 189.04 37.8 190.53 35.6C192.03 33.4 193.23 30.79 194.14 27.76C195.05 24.74 195.5 22.12 195.5 19.93C195.43 20.11 195.18 20.26 194.77 20.35C194.35 20.44 193.99 20.49 193.69 20.49C193.04 20.49 192.54 20.19 192.18 19.59C191.82 18.98 191.65 18.31 191.65 17.6C191.65 16.69 191.94 15.96 192.52 15.38C193.11 14.81 193.99 14.53 195.16 14.53C196.42 14.53 197.32 14.99 197.89 15.93C198.45 16.85 198.74 18.03 198.74 19.47C198.74 22.88 198.15 26.53 196.98 30.4C195.8 34.28 194.01 37.59 191.59 40.32C189.16 43.04 186.16 44.4 182.55 44.4C180.7 44.4 179.19 44.01 178.02 43.21C176.84 42.41 176.08 41.22 175.74 39.63C173.62 42.82 170.93 44.4 167.68 44.4C165.86 44.4 164.39 43.84 163.27 42.7C162.16 41.56 161.59 39.87 161.59 37.59ZM198.85 35.38C198.85 32.76 199.37 29.89 200.39 26.75C201.41 23.59 203.08 20.88 205.39 18.6C207.7 16.3 210.63 15.15 214.19 15.15C218.36 15.15 220.44 16.97 220.44 20.6C220.44 22.73 219.83 24.68 218.62 26.45C217.41 28.24 215.8 29.67 213.79 30.74C211.78 31.82 209.65 32.44 207.38 32.59C207.3 33.72 207.26 34.48 207.26 34.87C207.26 36.71 207.59 37.98 208.23 38.64C208.87 39.3 209.92 39.63 211.35 39.63C213.4 39.63 215.15 39.16 216.6 38.21C218.06 37.27 219.66 35.83 221.4 33.89C221.6 33.89 223.14 33.89 223.34 33.89C219.13 40.9 213.92 44.4 207.72 44.4C204.92 44.4 202.74 43.68 201.18 42.21C199.63 40.76 198.85 38.48 198.85 35.38ZM214.9 24.92C215.68 23.52 216.06 22.05 216.06 20.49C216.06 18.94 215.59 18.16 214.64 18.16C213.28 18.16 211.94 19.36 210.64 21.75C209.33 24.13 208.4 26.84 207.83 29.87C209.23 29.79 210.57 29.3 211.83 28.39C213.1 27.48 214.12 26.32 214.9 24.92ZM220.5 40.63C219.88 39.51 219.58 38.35 219.58 37.13C219.58 35.88 219.88 34.8 220.47 33.87C221.05 32.94 221.76 32.27 222.6 31.86C224.07 29.21 225.37 26.53 226.46 23.81C227.55 21.1 228.6 18.18 229.58 15.04C230.42 14.93 237.15 14.02 237.98 13.91C238.17 18.76 238.5 24 238.96 29.64C239.15 31.91 239.24 33.55 239.24 34.58C239.24 35.45 239.16 36.17 239.01 36.73C240.79 35.71 242.15 34.77 243.1 33.89C243.33 33.89 245.25 33.89 245.48 33.89C243.06 36.7 240.16 39.06 236.8 41C235.69 42.17 234.34 43.03 232.73 43.58C231.13 44.13 229.51 44.4 227.88 44.4C226.06 44.4 224.53 44.05 223.28 43.36C222.03 42.66 221.1 41.74 220.5 40.63ZM231.01 34.64C231.01 33.5 230.89 31.91 230.67 29.87C230.28 25.55 230.03 22.65 229.92 21.17C229.02 24.17 227.48 27.74 225.33 31.91C226.19 32.37 226.63 33.03 226.63 33.89C226.63 34.62 226.39 35.26 225.92 35.83C225.45 36.39 224.85 36.68 224.13 36.68C223.34 36.68 222.83 36.43 222.6 35.94C222.6 37.31 222.87 38.31 223.42 38.95C223.97 39.59 224.85 39.92 226.06 39.92C227.46 39.92 228.64 39.5 229.58 38.67C230.53 37.84 231.01 36.49 231.01 34.64ZM242.3 35.32C242.3 32.74 242.83 29.89 243.9 26.75C244.96 23.59 246.66 20.88 249.01 18.6C251.35 16.3 254.31 15.15 257.87 15.15C262.72 15.15 265.14 18.18 265.14 24.25C265.14 24.25 265.14 24.3 265.14 24.3C265.25 24.34 265.46 24.36 265.76 24.36C267.01 24.36 268.45 24.03 270.08 23.36C271.7 22.7 273.19 21.9 274.51 20.94C274.56 21.1 274.96 22.33 275.02 22.48C273.92 23.65 272.49 24.65 270.73 25.46C268.97 26.27 267.04 26.86 264.97 27.2C264.66 30.64 263.89 33.65 262.64 36.22C261.39 38.8 259.78 40.79 257.81 42.19C255.84 43.59 253.7 44.29 251.39 44.29C248.59 44.29 246.38 43.57 244.75 42.13C243.12 40.7 242.3 38.42 242.3 35.32ZM258.77 33.36C259.46 31.56 259.95 29.57 260.25 27.37C259.23 27.14 258.72 26.34 258.72 24.98C258.72 23.42 259.3 22.41 260.48 21.92C260.41 20.66 260.22 19.8 259.91 19.33C259.61 18.86 259.07 18.62 258.32 18.62C257.08 18.62 255.86 19.53 254.69 21.35C253.51 23.16 252.57 25.34 251.85 27.88C251.12 30.41 250.77 32.65 250.77 34.58C250.77 36.39 250.97 37.62 251.39 38.24C251.81 38.87 252.57 39.18 253.66 39.18C254.58 39.18 255.48 38.66 256.39 37.62C257.3 36.57 258.09 35.16 258.77 33.36ZM295.86 37.99C295.86 37.2 295.95 36.29 296.14 35.29C296.34 34.28 296.54 33.31 296.75 32.37C296.95 31.41 297.1 30.81 297.17 30.55C297.47 29.23 297.76 27.91 298.02 26.63C298.28 25.34 298.42 24.3 298.42 23.5C298.42 21.58 297.74 20.6 296.38 20.6C295.39 20.6 294.52 21.09 293.77 22.06C293 23.02 292.4 24.28 291.95 25.83C291.69 27.05 290.4 33.12 288.08 44.06C287.27 44.06 280.72 44.06 279.9 44.06C282.39 32.31 283.78 25.77 284.05 24.47C284.16 24.02 284.22 23.54 284.22 23.05C284.22 21.39 283.66 20.55 282.51 20.55C281.46 20.55 280.54 21.03 279.76 22C278.99 22.96 278.37 24.25 277.92 25.83C277.65 27.05 276.37 33.12 274.05 44.06C273.51 44.06 270.78 44.06 265.88 44.06L271.89 15.66C276.8 15.66 279.53 15.66 280.07 15.66C279.7 17.44 279.49 18.42 279.45 18.62C281.38 16.46 283.69 15.38 286.38 15.38C289.71 15.38 291.66 17.01 292.23 20.27C294.31 17.05 296.95 15.44 300.12 15.44C302.06 15.44 303.58 15.97 304.73 17.03C305.86 18.09 306.42 19.7 306.42 21.86C306.42 22.95 306.29 24.18 306.03 25.52C305.76 26.87 305.39 28.5 304.9 30.43C304.59 31.6 304.32 32.75 304.07 33.87C303.82 34.99 303.7 35.87 303.7 36.51C303.7 37.27 303.87 37.86 304.22 38.27C304.56 38.69 305.14 38.89 305.97 38.89C307.11 38.89 308.02 38.49 308.7 37.68C309.38 36.86 310.07 35.6 310.74 33.89C310.98 33.89 312.89 33.89 313.13 33.89C311.72 38.06 310.11 40.86 308.27 42.27C306.43 43.69 304.54 44.4 302.57 44.4C300.26 44.4 298.56 43.79 297.48 42.56C296.41 41.33 295.86 39.8 295.86 37.99ZM309.95 35.38C309.95 32.76 310.46 29.89 311.48 26.75C312.51 23.59 314.17 20.88 316.48 18.6C318.79 16.3 321.72 15.15 325.29 15.15C329.45 15.15 331.53 16.97 331.53 20.6C331.53 22.73 330.93 24.68 329.71 26.45C328.5 28.24 326.89 29.67 324.88 30.74C322.88 31.82 320.74 32.44 318.47 32.59C318.39 33.42 318.36 33.99 318.36 34.29C318.36 37.44 319.53 39.01 321.87 39.01C322.94 39.01 324.07 38.72 325.29 38.16C326.5 37.59 327.59 36.87 328.58 36C327.55 41.6 324.28 44.4 318.75 44.4C315.99 44.4 313.83 43.68 312.28 42.21C310.73 40.76 309.95 38.48 309.95 35.38ZM326 24.95C326.77 23.53 327.16 22.05 327.16 20.49C327.16 18.94 326.68 18.16 325.74 18.16C324.41 18.16 323.1 19.37 321.79 21.77C320.49 24.18 319.51 26.88 318.87 29.87C320.31 29.83 321.66 29.36 322.93 28.44C324.19 27.54 325.22 26.37 326 24.95Z" id="avRm8MM4e"></path><path d="M130.04 48.55C129.27 47.67 128.88 46.34 128.88 44.51C128.88 41.98 129.65 38.57 131.19 34.29C132.71 30.02 134.73 25.72 137.23 21.41C135.34 21.52 133.85 21.8 132.74 22.26C131.65 22.71 130.93 23.41 130.59 24.36C130.74 24.36 130.9 24.55 131.07 24.92C131.24 25.3 131.33 25.7 131.33 26.11C131.33 26.8 131.03 27.34 130.41 27.74C129.81 28.13 129.05 28.33 128.15 28.33C127.08 28.33 126.23 28.05 125.59 27.48C124.94 26.92 124.62 26.09 124.62 25.04C124.62 23.75 125.12 22.58 126.13 21.52C127.13 20.45 128.53 19.61 130.3 18.99C132.08 18.36 134.05 18.05 136.21 18.05C137 18.05 137.99 18.11 139.16 18.22C142.27 13.3 145.55 9.28 149.02 6.15C152.48 3.03 155.78 1.47 158.92 1.47C160.75 1.47 162.25 1.73 163.41 2.26C162.82 5.05 159.85 18.99 154.5 44.06C153.68 44.06 147.13 44.06 146.32 44.06C148.95 31.69 150.4 24.82 150.69 23.44C149.3 22.8 148 22.33 146.83 22.03C145.65 21.73 144.41 21.52 143.08 21.41C140.92 26.06 139.16 30.82 137.77 35.69C136.39 40.55 135.69 44.44 135.69 47.35C135.69 48.8 135.97 49.85 136.5 50.54C135.09 50.54 133.86 50.42 132.8 50.19C131.74 49.97 130.83 49.42 130.04 48.55ZM144.28 18.96C147 19.49 149.31 20.15 151.2 20.94C151.42 19.92 152.52 14.77 154.5 5.5C152.29 7.16 150.59 8.78 149.42 10.35C147.65 12.72 145.94 15.59 144.28 18.96ZM161.59 37.59C161.59 36.64 161.75 35.41 162.06 33.89C162.31 32.68 163.6 26.61 165.91 15.66C166.73 15.66 173.27 15.66 174.09 15.66C171.64 27.25 170.28 33.69 170.01 34.98C169.88 35.43 169.83 35.9 169.83 36.39C169.83 38.06 170.4 38.89 171.54 38.89C172.6 38.89 173.51 38.45 174.26 37.56C175.02 36.67 175.63 35.45 176.08 33.89C176.34 32.68 177.62 26.61 179.94 15.66C180.76 15.66 187.31 15.66 188.12 15.66C185.66 27.25 184.31 33.69 184.03 34.98C183.84 35.92 183.75 36.6 183.75 37.02C183.75 38.27 184.39 38.89 185.67 38.89C187.42 38.89 189.04 37.8 190.53 35.6C192.03 33.4 193.23 30.79 194.14 27.76C195.05 24.74 195.5 22.12 195.5 19.93C195.43 20.11 195.18 20.26 194.77 20.35C194.35 20.44 193.99 20.49 193.69 20.49C193.04 20.49 192.54 20.19 192.18 19.59C191.82 18.98 191.65 18.31 191.65 17.6C191.65 16.69 191.94 15.96 192.52 15.38C193.11 14.81 193.99 14.53 195.16 14.53C196.42 14.53 197.32 14.99 197.89 15.93C198.45 16.85 198.74 18.03 198.74 19.47C198.74 22.88 198.15 26.53 196.98 30.4C195.8 34.28 194.01 37.59 191.59 40.32C189.16 43.04 186.16 44.4 182.55 44.4C180.7 44.4 179.19 44.01 178.02 43.21C176.84 42.41 176.08 41.22 175.74 39.63C173.62 42.82 170.93 44.4 167.68 44.4C165.86 44.4 164.39 43.84 163.27 42.7C162.16 41.56 161.59 39.87 161.59 37.59ZM198.85 35.38C198.85 32.76 199.37 29.89 200.39 26.75C201.41 23.59 203.08 20.88 205.39 18.6C207.7 16.3 210.63 15.15 214.19 15.15C218.36 15.15 220.44 16.97 220.44 20.6C220.44 22.73 219.83 24.68 218.62 26.45C217.41 28.24 215.8 29.67 213.79 30.74C211.78 31.82 209.65 32.44 207.38 32.59C207.3 33.72 207.26 34.48 207.26 34.87C207.26 36.71 207.59 37.98 208.23 38.64C208.87 39.3 209.92 39.63 211.35 39.63C213.4 39.63 215.15 39.16 216.6 38.21C218.06 37.27 219.66 35.83 221.4 33.89C221.6 33.89 223.14 33.89 223.34 33.89C219.13 40.9 213.92 44.4 207.72 44.4C204.92 44.4 202.74 43.68 201.18 42.21C199.63 40.76 198.85 38.48 198.85 35.38ZM214.9 24.92C215.68 23.52 216.06 22.05 216.06 20.49C216.06 18.94 215.59 18.16 214.64 18.16C213.28 18.16 211.94 19.36 210.64 21.75C209.33 24.13 208.4 26.84 207.83 29.87C209.23 29.79 210.57 29.3 211.83 28.39C213.1 27.48 214.12 26.32 214.9 24.92ZM220.5 40.63C219.88 39.51 219.58 38.35 219.58 37.13C219.58 35.88 219.88 34.8 220.47 33.87C221.05 32.94 221.76 32.27 222.6 31.86C224.07 29.21 225.37 26.53 226.46 23.81C227.55 21.1 228.6 18.18 229.58 15.04C230.42 14.93 237.15 14.02 237.98 13.91C238.17 18.76 238.5 24 238.96 29.64C239.15 31.91 239.24 33.55 239.24 34.58C239.24 35.45 239.16 36.17 239.01 36.73C240.79 35.71 242.15 34.77 243.1 33.89C243.33 33.89 245.25 33.89 245.48 33.89C243.06 36.7 240.16 39.06 236.8 41C235.69 42.17 234.34 43.03 232.73 43.58C231.13 44.13 229.51 44.4 227.88 44.4C226.06 44.4 224.53 44.05 223.28 43.36C222.03 42.66 221.1 41.74 220.5 40.63ZM231.01 34.64C231.01 33.5 230.89 31.91 230.67 29.87C230.28 25.55 230.03 22.65 229.92 21.17C229.02 24.17 227.48 27.74 225.33 31.91C226.19 32.37 226.63 33.03 226.63 33.89C226.63 34.62 226.39 35.26 225.92 35.83C225.45 36.39 224.85 36.68 224.13 36.68C223.34 36.68 222.83 36.43 222.6 35.94C222.6 37.31 222.87 38.31 223.42 38.95C223.97 39.59 224.85 39.92 226.06 39.92C227.46 39.92 228.64 39.5 229.58 38.67C230.53 37.84 231.01 36.49 231.01 34.64ZM242.3 35.32C242.3 32.74 242.83 29.89 243.9 26.75C244.96 23.59 246.66 20.88 249.01 18.6C251.35 16.3 254.31 15.15 257.87 15.15C262.72 15.15 265.14 18.18 265.14 24.25C265.14 24.25 265.14 24.3 265.14 24.3C265.25 24.34 265.46 24.36 265.76 24.36C267.01 24.36 268.45 24.03 270.08 23.36C271.7 22.7 273.19 21.9 274.51 20.94C274.56 21.1 274.96 22.33 275.02 22.48C273.92 23.65 272.49 24.65 270.73 25.46C268.97 26.27 267.04 26.86 264.97 27.2C264.66 30.64 263.89 33.65 262.64 36.22C261.39 38.8 259.78 40.79 257.81 42.19C255.84 43.59 253.7 44.29 251.39 44.29C248.59 44.29 246.38 43.57 244.75 42.13C243.12 40.7 242.3 38.42 242.3 35.32ZM258.77 33.36C259.46 31.56 259.95 29.57 260.25 27.37C259.23 27.14 258.72 26.34 258.72 24.98C258.72 23.42 259.3 22.41 260.48 21.92C260.41 20.66 260.22 19.8 259.91 19.33C259.61 18.86 259.07 18.62 258.32 18.62C257.08 18.62 255.86 19.53 254.69 21.35C253.51 23.16 252.57 25.34 251.85 27.88C251.12 30.41 250.77 32.65 250.77 34.58C250.77 36.39 250.97 37.62 251.39 38.24C251.81 38.87 252.57 39.18 253.66 39.18C254.58 39.18 255.48 38.66 256.39 37.62C257.3 36.57 258.09 35.16 258.77 33.36ZM295.86 37.99C295.86 37.2 295.95 36.29 296.14 35.29C296.34 34.28 296.54 33.31 296.75 32.37C296.95 31.41 297.1 30.81 297.17 30.55C297.47 29.23 297.76 27.91 298.02 26.63C298.28 25.34 298.42 24.3 298.42 23.5C298.42 21.58 297.74 20.6 296.38 20.6C295.39 20.6 294.52 21.09 293.77 22.06C293 23.02 292.4 24.28 291.95 25.83C291.69 27.05 290.4 33.12 288.08 44.06C287.27 44.06 280.72 44.06 279.9 44.06C282.39 32.31 283.78 25.77 284.05 24.47C284.16 24.02 284.22 23.54 284.22 23.05C284.22 21.39 283.66 20.55 282.51 20.55C281.46 20.55 280.54 21.03 279.76 22C278.99 22.96 278.37 24.25 277.92 25.83C277.65 27.05 276.37 33.12 274.05 44.06C273.51 44.06 270.78 44.06 265.88 44.06L271.89 15.66C276.8 15.66 279.53 15.66 280.07 15.66C279.7 17.44 279.49 18.42 279.45 18.62C281.38 16.46 283.69 15.38 286.38 15.38C289.71 15.38 291.66 17.01 292.23 20.27C294.31 17.05 296.95 15.44 300.12 15.44C302.06 15.44 303.58 15.97 304.73 17.03C305.86 18.09 306.42 19.7 306.42 21.86C306.42 22.95 306.29 24.18 306.03 25.52C305.76 26.87 305.39 28.5 304.9 30.43C304.59 31.6 304.32 32.75 304.07 33.87C303.82 34.99 303.7 35.87 303.7 36.51C303.7 37.27 303.87 37.86 304.22 38.27C304.56 38.69 305.14 38.89 305.97 38.89C307.11 38.89 308.02 38.49 308.7 37.68C309.38 36.86 310.07 35.6 310.74 33.89C310.98 33.89 312.89 33.89 313.13 33.89C311.72 38.06 310.11 40.86 308.27 42.27C306.43 43.69 304.54 44.4 302.57 44.4C300.26 44.4 298.56 43.79 297.48 42.56C296.41 41.33 295.86 39.8 295.86 37.99ZM309.95 35.38C309.95 32.76 310.46 29.89 311.48 26.75C312.51 23.59 314.17 20.88 316.48 18.6C318.79 16.3 321.72 15.15 325.29 15.15C329.45 15.15 331.53 16.97 331.53 20.6C331.53 22.73 330.93 24.68 329.71 26.45C328.5 28.24 326.89 29.67 324.88 30.74C322.88 31.82 320.74 32.44 318.47 32.59C318.39 33.42 318.36 33.99 318.36 34.29C318.36 37.44 319.53 39.01 321.87 39.01C322.94 39.01 324.07 38.72 325.29 38.16C326.5 37.59 327.59 36.87 328.58 36C327.55 41.6 324.28 44.4 318.75 44.4C315.99 44.4 313.83 43.68 312.28 42.21C310.73 40.76 309.95 38.48 309.95 35.38ZM326 24.95C326.77 23.53 327.16 22.05 327.16 20.49C327.16 18.94 326.68 18.16 325.74 18.16C324.41 18.16 323.1 19.37 321.79 21.77C320.49 24.18 319.51 26.88 318.87 29.87C320.31 29.83 321.66 29.36 322.93 28.44C324.19 27.54 325.22 26.37 326 24.95Z" id="c1ijhULvf"></path><path d="M152.74 66.1C154.63 64.47 156.85 63.65 159.38 63.65C161.5 63.65 163.19 64.36 164.43 65.76C165.69 67.16 166.31 69.45 166.31 72.63C166.31 75.62 165.88 78.64 165.01 81.69C164.13 84.73 162.66 87.33 160.58 89.47C158.49 91.61 155.75 92.68 152.34 92.68C149.92 92.68 148.3 92 147.51 90.64C147.32 91.56 146.34 96.18 144.56 104.49C143.99 104.62 141.13 105.31 135.99 106.54L145.47 61.84L153.64 61.84C153.08 64.49 152.78 65.91 152.74 66.1ZM157.71 79.07C158.26 76.71 158.53 74.51 158.53 72.46C158.53 69.32 157.59 67.75 155.69 67.75C155.01 67.75 154.32 67.99 153.61 68.48C152.92 68.97 152.3 69.66 151.78 70.53C151.43 72.12 148.75 84.84 148.42 86.43C148.72 87.3 149.45 87.73 150.58 87.73C152.4 87.73 153.9 86.88 155.1 85.19C156.28 83.48 157.16 81.44 157.71 79.07ZM179.03 67.46C180.32 66.32 181.49 65.45 182.52 64.85C183.57 64.25 184.69 63.95 185.91 63.95C187.12 63.95 188.07 64.36 188.78 65.19C189.48 66.02 189.82 67.03 189.82 68.2C189.82 69.3 189.47 70.26 188.75 71.09C188.02 71.93 187.02 72.35 185.74 72.35C184.9 72.35 184.34 72.15 184.06 71.75C183.78 71.35 183.56 70.77 183.41 70.02C183.3 69.53 183.18 69.17 183.06 68.93C182.95 68.71 182.74 68.59 182.44 68.59C181.65 68.59 180.98 68.76 180.42 69.08C179.87 69.41 179.17 69.96 178.3 70.76C178 72.2 176.48 79.39 173.75 92.34C173.2 92.34 170.48 92.34 165.57 92.34L171.59 63.95L179.77 63.95C179.31 66.13 179.06 67.3 179.03 67.46ZM188.29 83.59C188.29 81.02 188.83 78.16 189.88 75.02C190.94 71.88 192.64 69.16 194.99 66.87C197.34 64.58 200.29 63.43 203.85 63.43C208.7 63.43 211.12 66.46 211.12 72.52C211.12 72.52 211.12 72.57 211.12 72.58C211.24 72.61 211.44 72.63 211.74 72.63C213 72.63 214.43 72.3 216.06 71.63C217.7 70.97 219.17 70.17 220.5 69.23C220.55 69.38 220.96 70.6 221.01 70.76C219.9 71.93 218.48 72.92 216.72 73.74C214.96 74.56 213.04 75.13 210.95 75.47C210.65 78.91 209.88 81.92 208.62 84.5C207.38 87.07 205.76 89.06 203.79 90.47C201.83 91.86 199.69 92.56 197.38 92.56C194.58 92.56 192.36 91.85 190.73 90.41C189.11 88.97 188.29 86.7 188.29 83.59ZM204.77 81.63C205.44 79.84 205.93 77.84 206.24 75.64C205.22 75.41 204.71 74.62 204.71 73.25C204.71 71.7 205.29 70.68 206.46 70.19C206.39 68.93 206.2 68.08 205.9 67.6C205.6 67.13 205.07 66.9 204.31 66.9C203.06 66.9 201.85 67.8 200.67 69.62C199.5 71.43 198.55 73.61 197.83 76.15C197.12 78.69 196.76 80.92 196.76 82.86C196.76 84.67 196.96 85.89 197.38 86.52C197.79 87.14 198.55 87.45 199.65 87.45C200.56 87.45 201.46 86.93 202.38 85.89C203.28 84.85 204.08 83.43 204.77 81.63ZM202.27 100.17C202.27 98.59 202.72 97.28 203.62 96.26C204.54 95.23 205.65 94.42 206.98 93.82C208.3 93.21 210.01 92.56 212.09 91.88C212.72 88.9 217.77 65 218.39 62.01C219.41 57.31 221.12 54.11 223.51 52.38C225.89 50.67 228.62 49.8 231.68 49.8C234.52 49.8 236.93 50.27 238.9 51.22C240.86 52.16 241.85 53.87 241.85 56.33C241.85 57.92 241.43 59.09 240.57 59.82C239.72 60.56 238.65 60.93 237.36 60.93C236.38 60.93 235.56 60.69 234.92 60.22C234.28 59.75 233.96 58.97 233.96 57.86C233.96 57.14 234.14 56.5 234.5 55.94C234.85 55.36 235.32 55.08 235.89 55.08C236.16 55.08 236.31 55.1 236.34 55.14C236.31 54.38 236.01 53.82 235.46 53.44C234.91 53.05 234.16 52.86 233.22 52.86C231.55 52.86 230.21 53.48 229.21 54.68C228.21 55.9 227.53 57.43 227.19 59.29C227.13 59.6 226.81 61.15 226.23 63.95C226.53 63.95 228.05 63.95 230.78 63.95L230.32 66.21C227.6 66.21 226.08 66.21 225.78 66.21C221.89 84.61 219.73 94.84 219.3 96.88C218.55 100.44 217.23 102.94 215.39 104.38C213.53 105.81 211.5 106.54 209.3 106.54C207.23 106.54 205.53 105.96 204.23 104.8C202.92 103.64 202.27 102.11 202.27 100.17ZM228.73 85.87C228.73 84.91 228.88 83.69 229.18 82.17C229.44 80.96 230.73 74.88 233.04 63.95C233.86 63.95 240.41 63.95 241.23 63.95C238.78 75.53 237.41 81.96 237.14 83.25C236.99 83.82 236.91 84.42 236.91 85.06C236.91 85.83 237.09 86.37 237.45 86.69C237.81 87.01 238.41 87.17 239.24 87.17C240.33 87.17 241.36 86.7 242.3 85.78C243.25 84.85 243.94 83.65 244.35 82.17C244.59 82.17 246.5 82.17 246.74 82.17C245.33 86.26 243.53 89.03 241.34 90.5C239.15 91.95 236.97 92.68 234.81 92.68C232.99 92.68 231.52 92.11 230.4 90.98C229.29 89.84 228.73 88.14 228.73 85.87ZM211.01 97.05C211.08 96.72 211.62 94.09 211.69 93.76C209.76 94.36 208.23 95.13 207.1 96.06C205.95 96.99 205.39 98.03 205.39 99.21C205.39 100.04 205.65 100.63 206.18 100.97C206.71 101.32 207.23 101.48 207.72 101.48C208.36 101.48 208.99 101.13 209.62 100.4C210.25 99.68 210.71 98.57 211.01 97.05ZM243.9 85.87C243.9 84.91 244.05 83.69 244.35 82.17C244.76 80.28 246.78 70.79 250.43 53.72C251.27 53.6 257.99 52.7 258.83 52.58C254.92 70.98 252.74 81.21 252.3 83.25C252.15 83.82 252.08 84.42 252.08 85.06C252.08 85.83 252.26 86.37 252.61 86.69C252.97 87.01 253.57 87.17 254.41 87.17C255.5 87.17 256.52 86.7 257.47 85.78C258.41 84.85 259.09 83.65 259.52 82.17C259.76 82.17 261.66 82.17 261.9 82.17C260.5 86.26 258.7 89.03 256.5 90.5C254.31 91.95 252.13 92.68 249.97 92.68C248.15 92.68 246.69 92.11 245.57 90.98C244.46 89.84 243.9 88.14 243.9 85.87ZM258.72 83.65C258.72 81.04 259.23 78.16 260.25 75.02C261.27 71.88 262.94 69.16 265.25 66.87C267.56 64.58 270.5 63.43 274.05 63.43C278.22 63.43 280.3 65.25 280.3 68.88C280.3 71 279.69 72.95 278.49 74.74C277.27 76.51 275.67 77.94 273.66 79.02C271.65 80.1 269.51 80.72 267.23 80.87C267.16 81.7 267.12 82.26 267.12 82.57C267.12 85.71 268.3 87.28 270.65 87.28C271.7 87.28 272.85 87 274.05 86.43C275.27 85.87 276.36 85.15 277.34 84.27C276.33 89.87 273.05 92.68 267.53 92.68C264.76 92.68 262.6 91.95 261.05 90.5C259.5 89.03 258.72 86.75 258.72 83.65ZM274.76 73.23C275.54 71.81 275.93 70.32 275.93 68.76C275.93 67.22 275.46 66.43 274.51 66.43C273.19 66.43 271.86 67.64 270.56 70.05C269.25 72.45 268.28 75.15 267.64 78.14C269.07 78.1 270.43 77.63 271.7 76.72C272.97 75.81 273.99 74.65 274.76 73.23ZM292.79 79.72L281.38 79.72L282.4 75.24L293.77 75.24L292.79 79.72ZM296.03 83.65C296.03 81.04 296.56 78.16 297.6 75.02C298.63 71.88 300.3 69.16 302.59 66.87C304.89 64.58 307.79 63.43 311.31 63.43C313.58 63.43 315.21 63.93 316.17 64.91C317.13 65.89 317.62 67.14 317.62 68.65C317.62 69.98 317.34 71 316.76 71.72C316.2 72.44 315.48 72.8 314.6 72.8C313.96 72.8 313.3 72.58 312.62 72.12C313.07 70.87 313.3 69.76 313.3 68.76C313.3 68.05 313.17 67.48 312.9 67.07C312.64 66.65 312.24 66.43 311.71 66.43C310.57 66.43 309.44 67.37 308.3 69.23C307.17 71.08 306.24 73.33 305.52 75.98C304.8 78.63 304.44 81.02 304.44 83.14C304.44 84.99 304.76 86.25 305.41 86.91C306.05 87.57 307.09 87.91 308.53 87.91C310.57 87.91 312.33 87.43 313.78 86.49C315.24 85.54 316.84 84.1 318.58 82.17C318.77 82.17 320.32 82.17 320.52 82.17C316.31 89.18 311.1 92.68 304.9 92.68C302.1 92.68 299.92 91.95 298.36 90.5C296.81 89.03 296.03 86.75 296.03 83.65ZM317.85 83.54C317.85 80.73 318.4 77.79 319.52 74.71C320.64 71.61 322.3 69 324.51 66.87C326.73 64.73 329.37 63.65 332.44 63.65C333.99 63.65 335.14 63.93 335.91 64.45C336.66 64.98 337.04 65.68 337.04 66.56C337.04 66.58 337.04 66.72 337.04 66.95C337.08 66.75 337.29 65.75 337.66 63.95C342.57 63.95 345.3 63.95 345.84 63.95C343.39 75.53 342.03 81.96 341.76 83.25C341.61 83.82 341.53 84.42 341.53 85.06C341.53 86.7 342.3 87.51 343.86 87.51C344.92 87.51 345.83 87.02 346.61 86.04C347.39 85.04 348 83.76 348.45 82.17C348.69 82.17 350.6 82.17 350.84 82.17C349.44 86.26 347.71 89.03 345.64 90.5C343.58 91.95 341.51 92.68 339.43 92.68C337.83 92.68 336.56 92.23 335.59 91.35C334.63 90.46 334.05 89.16 333.86 87.45C332.76 89.01 331.54 90.26 330.19 91.23C328.85 92.19 327.25 92.68 325.4 92.68C323.24 92.68 321.44 91.94 320.01 90.47C318.56 88.99 317.85 86.68 317.85 83.54ZM333.81 82.17C334.08 80.89 336.26 70.62 336.53 69.34C336.53 68.84 336.34 68.36 335.97 67.89C335.58 67.42 334.99 67.18 334.2 67.18C332.68 67.18 331.33 68.06 330.11 69.82C328.9 71.58 327.96 73.7 327.27 76.18C326.59 78.66 326.25 80.85 326.25 82.74C326.25 84.63 326.52 85.85 327.07 86.37C327.62 86.9 328.3 87.17 329.09 87.17C330.03 87.17 330.98 86.72 331.9 85.84C332.82 84.94 333.47 83.72 333.81 82.17ZM359.76 67.46C361.05 66.32 362.22 65.45 363.25 64.85C364.29 64.25 365.42 63.95 366.63 63.95C367.85 63.95 368.8 64.36 369.5 65.19C370.2 66.02 370.55 67.03 370.55 68.2C370.55 69.3 370.19 70.26 369.47 71.09C368.75 71.93 367.75 72.35 366.46 72.35C365.63 72.35 365.07 72.15 364.79 71.75C364.5 71.35 364.28 70.77 364.13 70.02C364.02 69.53 363.9 69.17 363.79 68.93C363.68 68.71 363.47 68.59 363.17 68.59C362.38 68.59 361.7 68.76 361.15 69.08C360.6 69.41 359.89 69.96 359.02 70.76C358.72 72.2 357.21 79.39 354.48 92.34C353.93 92.34 351.2 92.34 346.3 92.34L352.32 63.95L360.5 63.95C360.04 66.13 359.79 67.3 359.76 67.46ZM369.07 83.54C369.07 80.73 369.63 77.79 370.75 74.71C371.86 71.61 373.53 69 375.75 66.87C377.97 64.73 380.61 63.65 383.67 63.65C385.22 63.65 386.38 63.93 387.13 64.45C387.89 64.98 388.27 65.68 388.27 66.56C388.27 66.57 388.27 66.65 388.27 66.78C388.46 65.91 389.39 61.55 391.06 53.72C396.1 53.04 398.9 52.66 399.46 52.58C395.54 70.98 393.36 81.21 392.93 83.25C392.77 83.82 392.7 84.42 392.7 85.06C392.7 85.83 392.88 86.37 393.24 86.69C393.6 87.01 394.2 87.17 395.03 87.17C396.09 87.17 397.01 86.71 397.78 85.81C398.56 84.89 399.18 83.69 399.63 82.17C399.87 82.17 401.78 82.17 402.02 82.17C399.71 88.95 395.9 92.34 390.6 92.34C389.05 92.34 387.79 91.92 386.82 91.09C385.86 90.25 385.26 89.04 385.03 87.45C384.05 88.97 382.86 90.21 381.48 91.2C380.1 92.18 378.49 92.68 376.63 92.68C374.47 92.68 372.68 91.94 371.23 90.47C369.79 88.99 369.07 86.68 369.07 83.54ZM384.97 82.46C384.97 82.44 384.97 82.34 384.97 82.17C386.65 74.36 387.57 70.03 387.76 69.17C387.42 67.84 386.64 67.18 385.43 67.18C383.92 67.18 382.55 68.06 381.34 69.82C380.13 71.58 379.18 73.7 378.5 76.18C377.82 78.66 377.48 80.85 377.48 82.74C377.48 84.63 377.75 85.85 378.31 86.37C378.85 86.9 379.52 87.17 380.31 87.17C381.23 87.17 382.14 86.75 383.07 85.92C384 85.09 384.64 83.93 384.97 82.46ZM398.72 88.9C398.11 87.79 397.81 86.62 397.81 85.41C397.81 84.16 398.1 83.07 398.69 82.14C399.28 81.22 399.99 80.55 400.82 80.13C402.3 77.48 403.58 74.8 404.69 72.09C405.78 69.39 406.83 66.46 407.81 63.31C408.65 63.2 415.38 62.29 416.21 62.18C416.4 67.03 416.72 72.27 417.18 77.91C417.37 80.19 417.47 81.83 417.47 82.86C417.47 85.17 416.87 87.05 415.7 88.53C414.53 90.01 413.08 91.07 411.36 91.71C409.64 92.35 407.89 92.68 406.1 92.68C404.29 92.68 402.75 92.33 401.5 91.63C400.25 90.93 399.33 90.02 398.72 88.9ZM409.22 82.91C409.22 81.77 409.11 80.19 408.88 78.14C408.51 73.82 408.26 70.92 408.15 69.45C407.24 72.44 405.71 76.02 403.55 80.19C404.42 80.64 404.86 81.3 404.86 82.17C404.86 82.89 404.62 83.54 404.14 84.1C403.67 84.67 403.07 84.95 402.36 84.95C401.57 84.95 401.05 84.7 400.82 84.21C400.82 85.58 401.09 86.58 401.65 87.22C402.2 87.87 403.07 88.2 404.29 88.2C405.69 88.2 406.87 87.78 407.81 86.94C408.75 86.11 409.22 84.76 409.22 82.91Z" id="m1F7PVYxh"></path><path d="M152.74 66.1C154.63 64.47 156.85 63.65 159.38 63.65C161.5 63.65 163.19 64.36 164.43 65.76C165.69 67.16 166.31 69.45 166.31 72.63C166.31 75.62 165.88 78.64 165.01 81.69C164.13 84.73 162.66 87.33 160.58 89.47C158.49 91.61 155.75 92.68 152.34 92.68C149.92 92.68 148.3 92 147.51 90.64C147.32 91.56 146.34 96.18 144.56 104.49C143.99 104.62 141.13 105.31 135.99 106.54L145.47 61.84L153.64 61.84C153.08 64.49 152.78 65.91 152.74 66.1ZM157.71 79.07C158.26 76.71 158.53 74.51 158.53 72.46C158.53 69.32 157.59 67.75 155.69 67.75C155.01 67.75 154.32 67.99 153.61 68.48C152.92 68.97 152.3 69.66 151.78 70.53C151.43 72.12 148.75 84.84 148.42 86.43C148.72 87.3 149.45 87.73 150.58 87.73C152.4 87.73 153.9 86.88 155.1 85.19C156.28 83.48 157.16 81.44 157.71 79.07ZM179.03 67.46C180.32 66.32 181.49 65.45 182.52 64.85C183.57 64.25 184.69 63.95 185.91 63.95C187.12 63.95 188.07 64.36 188.78 65.19C189.48 66.02 189.82 67.03 189.82 68.2C189.82 69.3 189.47 70.26 188.75 71.09C188.02 71.93 187.02 72.35 185.74 72.35C184.9 72.35 184.34 72.15 184.06 71.75C183.78 71.35 183.56 70.77 183.41 70.02C183.3 69.53 183.18 69.17 183.06 68.93C182.95 68.71 182.74 68.59 182.44 68.59C181.65 68.59 180.98 68.76 180.42 69.08C179.87 69.41 179.17 69.96 178.3 70.76C178 72.2 176.48 79.39 173.75 92.34C173.2 92.34 170.48 92.34 165.57 92.34L171.59 63.95L179.77 63.95C179.31 66.13 179.06 67.3 179.03 67.46ZM188.29 83.59C188.29 81.02 188.83 78.16 189.88 75.02C190.94 71.88 192.64 69.16 194.99 66.87C197.34 64.58 200.29 63.43 203.85 63.43C208.7 63.43 211.12 66.46 211.12 72.52C211.12 72.52 211.12 72.57 211.12 72.58C211.24 72.61 211.44 72.63 211.74 72.63C213 72.63 214.43 72.3 216.06 71.63C217.7 70.97 219.17 70.17 220.5 69.23C220.55 69.38 220.96 70.6 221.01 70.76C219.9 71.93 218.48 72.92 216.72 73.74C214.96 74.56 213.04 75.13 210.95 75.47C210.65 78.91 209.88 81.92 208.62 84.5C207.38 87.07 205.76 89.06 203.79 90.47C201.83 91.86 199.69 92.56 197.38 92.56C194.58 92.56 192.36 91.85 190.73 90.41C189.11 88.97 188.29 86.7 188.29 83.59ZM204.77 81.63C205.44 79.84 205.93 77.84 206.24 75.64C205.22 75.41 204.71 74.62 204.71 73.25C204.71 71.7 205.29 70.68 206.46 70.19C206.39 68.93 206.2 68.08 205.9 67.6C205.6 67.13 205.07 66.9 204.31 66.9C203.06 66.9 201.85 67.8 200.67 69.62C199.5 71.43 198.55 73.61 197.83 76.15C197.12 78.69 196.76 80.92 196.76 82.86C196.76 84.67 196.96 85.89 197.38 86.52C197.79 87.14 198.55 87.45 199.65 87.45C200.56 87.45 201.46 86.93 202.38 85.89C203.28 84.85 204.08 83.43 204.77 81.63ZM202.27 100.17C202.27 98.59 202.72 97.28 203.62 96.26C204.54 95.23 205.65 94.42 206.98 93.82C208.3 93.21 210.01 92.56 212.09 91.88C212.72 88.9 217.77 65 218.39 62.01C219.41 57.31 221.12 54.11 223.51 52.38C225.89 50.67 228.62 49.8 231.68 49.8C234.52 49.8 236.93 50.27 238.9 51.22C240.86 52.16 241.85 53.87 241.85 56.33C241.85 57.92 241.43 59.09 240.57 59.82C239.72 60.56 238.65 60.93 237.36 60.93C236.38 60.93 235.56 60.69 234.92 60.22C234.28 59.75 233.96 58.97 233.96 57.86C233.96 57.14 234.14 56.5 234.5 55.94C234.85 55.36 235.32 55.08 235.89 55.08C236.16 55.08 236.31 55.1 236.34 55.14C236.31 54.38 236.01 53.82 235.46 53.44C234.91 53.05 234.16 52.86 233.22 52.86C231.55 52.86 230.21 53.48 229.21 54.68C228.21 55.9 227.53 57.43 227.19 59.29C227.13 59.6 226.81 61.15 226.23 63.95C226.53 63.95 228.05 63.95 230.78 63.95L230.32 66.21C227.6 66.21 226.08 66.21 225.78 66.21C221.89 84.61 219.73 94.84 219.3 96.88C218.55 100.44 217.23 102.94 215.39 104.38C213.53 105.81 211.5 106.54 209.3 106.54C207.23 106.54 205.53 105.96 204.23 104.8C202.92 103.64 202.27 102.11 202.27 100.17ZM228.73 85.87C228.73 84.91 228.88 83.69 229.18 82.17C229.44 80.96 230.73 74.88 233.04 63.95C233.86 63.95 240.41 63.95 241.23 63.95C238.78 75.53 237.41 81.96 237.14 83.25C236.99 83.82 236.91 84.42 236.91 85.06C236.91 85.83 237.09 86.37 237.45 86.69C237.81 87.01 238.41 87.17 239.24 87.17C240.33 87.17 241.36 86.7 242.3 85.78C243.25 84.85 243.94 83.65 244.35 82.17C244.59 82.17 246.5 82.17 246.74 82.17C245.33 86.26 243.53 89.03 241.34 90.5C239.15 91.95 236.97 92.68 234.81 92.68C232.99 92.68 231.52 92.11 230.4 90.98C229.29 89.84 228.73 88.14 228.73 85.87ZM211.01 97.05C211.08 96.72 211.62 94.09 211.69 93.76C209.76 94.36 208.23 95.13 207.1 96.06C205.95 96.99 205.39 98.03 205.39 99.21C205.39 100.04 205.65 100.63 206.18 100.97C206.71 101.32 207.23 101.48 207.72 101.48C208.36 101.48 208.99 101.13 209.62 100.4C210.25 99.68 210.71 98.57 211.01 97.05ZM243.9 85.87C243.9 84.91 244.05 83.69 244.35 82.17C244.76 80.28 246.78 70.79 250.43 53.72C251.27 53.6 257.99 52.7 258.83 52.58C254.92 70.98 252.74 81.21 252.3 83.25C252.15 83.82 252.08 84.42 252.08 85.06C252.08 85.83 252.26 86.37 252.61 86.69C252.97 87.01 253.57 87.17 254.41 87.17C255.5 87.17 256.52 86.7 257.47 85.78C258.41 84.85 259.09 83.65 259.52 82.17C259.76 82.17 261.66 82.17 261.9 82.17C260.5 86.26 258.7 89.03 256.5 90.5C254.31 91.95 252.13 92.68 249.97 92.68C248.15 92.68 246.69 92.11 245.57 90.98C244.46 89.84 243.9 88.14 243.9 85.87ZM258.72 83.65C258.72 81.04 259.23 78.16 260.25 75.02C261.27 71.88 262.94 69.16 265.25 66.87C267.56 64.58 270.5 63.43 274.05 63.43C278.22 63.43 280.3 65.25 280.3 68.88C280.3 71 279.69 72.95 278.49 74.74C277.27 76.51 275.67 77.94 273.66 79.02C271.65 80.1 269.51 80.72 267.23 80.87C267.16 81.7 267.12 82.26 267.12 82.57C267.12 85.71 268.3 87.28 270.65 87.28C271.7 87.28 272.85 87 274.05 86.43C275.27 85.87 276.36 85.15 277.34 84.27C276.33 89.87 273.05 92.68 267.53 92.68C264.76 92.68 262.6 91.95 261.05 90.5C259.5 89.03 258.72 86.75 258.72 83.65ZM274.76 73.23C275.54 71.81 275.93 70.32 275.93 68.76C275.93 67.22 275.46 66.43 274.51 66.43C273.19 66.43 271.86 67.64 270.56 70.05C269.25 72.45 268.28 75.15 267.64 78.14C269.07 78.1 270.43 77.63 271.7 76.72C272.97 75.81 273.99 74.65 274.76 73.23ZM292.79 79.72L281.38 79.72L282.4 75.24L293.77 75.24L292.79 79.72ZM296.03 83.65C296.03 81.04 296.56 78.16 297.6 75.02C298.63 71.88 300.3 69.16 302.59 66.87C304.89 64.58 307.79 63.43 311.31 63.43C313.58 63.43 315.21 63.93 316.17 64.91C317.13 65.89 317.62 67.14 317.62 68.65C317.62 69.98 317.34 71 316.76 71.72C316.2 72.44 315.48 72.8 314.6 72.8C313.96 72.8 313.3 72.58 312.62 72.12C313.07 70.87 313.3 69.76 313.3 68.76C313.3 68.05 313.17 67.48 312.9 67.07C312.64 66.65 312.24 66.43 311.71 66.43C310.57 66.43 309.44 67.37 308.3 69.23C307.17 71.08 306.24 73.33 305.52 75.98C304.8 78.63 304.44 81.02 304.44 83.14C304.44 84.99 304.76 86.25 305.41 86.91C306.05 87.57 307.09 87.91 308.53 87.91C310.57 87.91 312.33 87.43 313.78 86.49C315.24 85.54 316.84 84.1 318.58 82.17C318.77 82.17 320.32 82.17 320.52 82.17C316.31 89.18 311.1 92.68 304.9 92.68C302.1 92.68 299.92 91.95 298.36 90.5C296.81 89.03 296.03 86.75 296.03 83.65ZM317.85 83.54C317.85 80.73 318.4 77.79 319.52 74.71C320.64 71.61 322.3 69 324.51 66.87C326.73 64.73 329.37 63.65 332.44 63.65C333.99 63.65 335.14 63.93 335.91 64.45C336.66 64.98 337.04 65.68 337.04 66.56C337.04 66.58 337.04 66.72 337.04 66.95C337.08 66.75 337.29 65.75 337.66 63.95C342.57 63.95 345.3 63.95 345.84 63.95C343.39 75.53 342.03 81.96 341.76 83.25C341.61 83.82 341.53 84.42 341.53 85.06C341.53 86.7 342.3 87.51 343.86 87.51C344.92 87.51 345.83 87.02 346.61 86.04C347.39 85.04 348 83.76 348.45 82.17C348.69 82.17 350.6 82.17 350.84 82.17C349.44 86.26 347.71 89.03 345.64 90.5C343.58 91.95 341.51 92.68 339.43 92.68C337.83 92.68 336.56 92.23 335.59 91.35C334.63 90.46 334.05 89.16 333.86 87.45C332.76 89.01 331.54 90.26 330.19 91.23C328.85 92.19 327.25 92.68 325.4 92.68C323.24 92.68 321.44 91.94 320.01 90.47C318.56 88.99 317.85 86.68 317.85 83.54ZM333.81 82.17C334.08 80.89 336.26 70.62 336.53 69.34C336.53 68.84 336.34 68.36 335.97 67.89C335.58 67.42 334.99 67.18 334.2 67.18C332.68 67.18 331.33 68.06 330.11 69.82C328.9 71.58 327.96 73.7 327.27 76.18C326.59 78.66 326.25 80.85 326.25 82.74C326.25 84.63 326.52 85.85 327.07 86.37C327.62 86.9 328.3 87.17 329.09 87.17C330.03 87.17 330.98 86.72 331.9 85.84C332.82 84.94 333.47 83.72 333.81 82.17ZM359.76 67.46C361.05 66.32 362.22 65.45 363.25 64.85C364.29 64.25 365.42 63.95 366.63 63.95C367.85 63.95 368.8 64.36 369.5 65.19C370.2 66.02 370.55 67.03 370.55 68.2C370.55 69.3 370.19 70.26 369.47 71.09C368.75 71.93 367.75 72.35 366.46 72.35C365.63 72.35 365.07 72.15 364.79 71.75C364.5 71.35 364.28 70.77 364.13 70.02C364.02 69.53 363.9 69.17 363.79 68.93C363.68 68.71 363.47 68.59 363.17 68.59C362.38 68.59 361.7 68.76 361.15 69.08C360.6 69.41 359.89 69.96 359.02 70.76C358.72 72.2 357.21 79.39 354.48 92.34C353.93 92.34 351.2 92.34 346.3 92.34L352.32 63.95L360.5 63.95C360.04 66.13 359.79 67.3 359.76 67.46ZM369.07 83.54C369.07 80.73 369.63 77.79 370.75 74.71C371.86 71.61 373.53 69 375.75 66.87C377.97 64.73 380.61 63.65 383.67 63.65C385.22 63.65 386.38 63.93 387.13 64.45C387.89 64.98 388.27 65.68 388.27 66.56C388.27 66.57 388.27 66.65 388.27 66.78C388.46 65.91 389.39 61.55 391.06 53.72C396.1 53.04 398.9 52.66 399.46 52.58C395.54 70.98 393.36 81.21 392.93 83.25C392.77 83.82 392.7 84.42 392.7 85.06C392.7 85.83 392.88 86.37 393.24 86.69C393.6 87.01 394.2 87.17 395.03 87.17C396.09 87.17 397.01 86.71 397.78 85.81C398.56 84.89 399.18 83.69 399.63 82.17C399.87 82.17 401.78 82.17 402.02 82.17C399.71 88.95 395.9 92.34 390.6 92.34C389.05 92.34 387.79 91.92 386.82 91.09C385.86 90.25 385.26 89.04 385.03 87.45C384.05 88.97 382.86 90.21 381.48 91.2C380.1 92.18 378.49 92.68 376.63 92.68C374.47 92.68 372.68 91.94 371.23 90.47C369.79 88.99 369.07 86.68 369.07 83.54ZM384.97 82.46C384.97 82.44 384.97 82.34 384.97 82.17C386.65 74.36 387.57 70.03 387.76 69.17C387.42 67.84 386.64 67.18 385.43 67.18C383.92 67.18 382.55 68.06 381.34 69.82C380.13 71.58 379.18 73.7 378.5 76.18C377.82 78.66 377.48 80.85 377.48 82.74C377.48 84.63 377.75 85.85 378.31 86.37C378.85 86.9 379.52 87.17 380.31 87.17C381.23 87.17 382.14 86.75 383.07 85.92C384 85.09 384.64 83.93 384.97 82.46ZM398.72 88.9C398.11 87.79 397.81 86.62 397.81 85.41C397.81 84.16 398.1 83.07 398.69 82.14C399.28 81.22 399.99 80.55 400.82 80.13C402.3 77.48 403.58 74.8 404.69 72.09C405.78 69.39 406.83 66.46 407.81 63.31C408.65 63.2 415.38 62.29 416.21 62.18C416.4 67.03 416.72 72.27 417.18 77.91C417.37 80.19 417.47 81.83 417.47 82.86C417.47 85.17 416.87 87.05 415.7 88.53C414.53 90.01 413.08 91.07 411.36 91.71C409.64 92.35 407.89 92.68 406.1 92.68C404.29 92.68 402.75 92.33 401.5 91.63C400.25 90.93 399.33 90.02 398.72 88.9ZM409.22 82.91C409.22 81.77 409.11 80.19 408.88 78.14C408.51 73.82 408.26 70.92 408.15 69.45C407.24 72.44 405.71 76.02 403.55 80.19C404.42 80.64 404.86 81.3 404.86 82.17C404.86 82.89 404.62 83.54 404.14 84.1C403.67 84.67 403.07 84.95 402.36 84.95C401.57 84.95 401.05 84.7 400.82 84.21C400.82 85.58 401.09 86.58 401.65 87.22C402.2 87.87 403.07 88.2 404.29 88.2C405.69 88.2 406.87 87.78 407.81 86.94C408.75 86.11 409.22 84.76 409.22 82.91Z" id="d5be9ZhPk"></path><path d="M128.63 47.13C127.86 46.26 127.46 44.91 127.46 43.1C127.46 40.56 128.23 37.16 129.76 32.88C131.3 28.59 133.32 24.3 135.82 19.98C133.92 20.1 132.42 20.38 131.33 20.83C130.22 21.29 129.51 21.99 129.17 22.93C129.32 22.93 129.48 23.12 129.65 23.5C129.82 23.89 129.9 24.28 129.9 24.7C129.9 25.38 129.6 25.91 129 26.31C128.39 26.72 127.63 26.92 126.72 26.92C125.67 26.92 124.81 26.63 124.17 26.06C123.53 25.49 123.21 24.68 123.21 23.61C123.21 22.33 123.71 21.15 124.71 20.1C125.71 19.04 127.1 18.19 128.88 17.57C130.67 16.95 132.63 16.63 134.79 16.63C135.58 16.63 136.57 16.69 137.74 16.8C140.84 11.88 144.14 7.85 147.6 4.73C151.06 1.61 154.37 0.05 157.51 0.05C159.32 0.05 160.82 0.32 161.99 0.84C161.4 3.63 158.43 17.56 153.08 42.65C152.26 42.65 145.72 42.65 144.9 42.65C147.52 30.27 148.99 23.4 149.28 22.03C147.87 21.39 146.59 20.91 145.41 20.6C144.24 20.3 142.98 20.1 141.66 19.98C139.5 24.64 137.73 29.41 136.35 34.26C134.97 39.13 134.28 43.02 134.28 45.94C134.28 47.37 134.54 48.44 135.07 49.12C133.68 49.12 132.44 49 131.38 48.78C130.32 48.55 129.4 48.01 128.63 47.13ZM142.85 17.54C145.58 18.07 147.89 18.74 149.79 19.53C150 18.49 151.1 13.35 153.08 4.08C150.86 5.74 149.17 7.36 147.99 8.94C146.23 11.3 144.52 14.17 142.85 17.54ZM160.18 36.17C160.18 35.22 160.33 33.99 160.63 32.48C160.89 31.26 162.18 25.18 164.49 14.25C165.31 14.25 171.86 14.25 172.68 14.25C170.22 25.83 168.86 32.27 168.58 33.55C168.47 34.01 168.41 34.48 168.41 34.98C168.41 36.64 168.98 37.48 170.12 37.48C171.18 37.48 172.08 37.03 172.85 36.14C173.6 35.25 174.21 34.03 174.66 32.48C174.91 31.26 176.21 25.18 178.53 14.25C179.34 14.25 185.88 14.25 186.7 14.25C184.25 25.83 182.88 32.27 182.61 33.55C182.42 34.51 182.33 35.19 182.33 35.6C182.33 36.85 182.97 37.48 184.26 37.48C186 37.48 187.62 36.38 189.12 34.18C190.61 31.99 191.81 29.38 192.72 26.34C193.64 23.31 194.09 20.7 194.09 18.5C194.01 18.7 193.77 18.84 193.34 18.94C192.93 19.03 192.57 19.08 192.27 19.08C191.63 19.08 191.13 18.78 190.76 18.16C190.4 17.56 190.22 16.9 190.22 16.18C190.22 15.27 190.51 14.53 191.11 13.96C191.69 13.4 192.57 13.11 193.75 13.11C194.99 13.11 195.9 13.58 196.47 14.5C197.04 15.43 197.32 16.62 197.32 18.05C197.32 21.46 196.74 25.1 195.56 28.98C194.39 32.87 192.59 36.17 190.16 38.89C187.74 41.62 184.73 42.99 181.14 42.99C179.28 42.99 177.76 42.59 176.59 41.79C175.42 41 174.66 39.8 174.32 38.21C172.2 41.39 169.51 42.99 166.25 42.99C164.43 42.99 162.97 42.41 161.85 41.28C160.74 40.15 160.18 38.44 160.18 36.17ZM197.44 33.95C197.44 31.34 197.95 28.46 198.97 25.32C199.99 22.18 201.66 19.46 203.96 17.17C206.27 14.88 209.21 13.74 212.77 13.74C216.93 13.74 219.02 15.55 219.02 19.19C219.02 21.31 218.41 23.26 217.2 25.04C215.99 26.82 214.38 28.24 212.38 29.33C210.37 30.4 208.23 31.02 205.95 31.17C205.88 32.31 205.84 33.06 205.84 33.44C205.84 35.3 206.16 36.55 206.81 37.22C207.45 37.88 208.49 38.21 209.93 38.21C211.97 38.21 213.73 37.74 215.19 36.79C216.64 35.85 218.24 34.4 219.99 32.48C220.18 32.48 221.72 32.48 221.91 32.48C217.72 39.48 212.51 42.99 206.29 42.99C203.49 42.99 201.31 42.25 199.77 40.8C198.21 39.34 197.44 37.05 197.44 33.95ZM213.48 23.5C214.25 22.1 214.64 20.62 214.64 19.08C214.64 17.52 214.17 16.75 213.23 16.75C211.86 16.75 210.53 17.94 209.22 20.32C207.92 22.71 206.98 25.42 206.41 28.44C207.81 28.37 209.14 27.88 210.41 26.97C211.68 26.06 212.71 24.91 213.48 23.5ZM219.07 39.2C218.47 38.09 218.17 36.92 218.17 35.71C218.17 34.46 218.46 33.38 219.05 32.45C219.63 31.52 220.35 30.85 221.18 30.43C222.66 27.78 223.94 25.1 225.03 22.4C226.14 19.69 227.18 16.77 228.17 13.63C229 13.51 235.72 12.6 236.57 12.48C236.76 17.33 237.08 22.58 237.53 28.22C237.72 30.49 237.81 32.14 237.81 33.16C237.81 34.03 237.74 34.75 237.59 35.32C239.37 34.29 240.73 33.35 241.68 32.48C241.92 32.48 243.83 32.48 244.07 32.48C241.64 35.28 238.75 37.65 235.37 39.57C234.28 40.75 232.92 41.61 231.32 42.16C229.7 42.71 228.09 42.99 226.46 42.99C224.64 42.99 223.11 42.64 221.86 41.93C220.61 41.23 219.68 40.33 219.07 39.2ZM229.58 33.22C229.58 32.08 229.47 30.49 229.24 28.44C228.86 24.13 228.62 21.24 228.51 19.76C227.59 22.75 226.06 26.32 223.9 30.49C224.77 30.94 225.2 31.6 225.2 32.48C225.2 33.2 224.97 33.84 224.5 34.4C224.03 34.98 223.43 35.26 222.71 35.26C221.91 35.26 221.4 35.02 221.18 34.53C221.18 35.88 221.45 36.88 222 37.54C222.54 38.18 223.43 38.5 224.64 38.5C226.04 38.5 227.21 38.08 228.17 37.25C229.11 36.41 229.58 35.07 229.58 33.22ZM240.88 33.89C240.88 31.32 241.42 28.46 242.47 25.32C243.53 22.18 245.24 19.46 247.59 17.17C249.94 14.88 252.89 13.74 256.44 13.74C261.29 13.74 263.72 16.77 263.72 22.82C263.72 22.83 263.72 22.87 263.72 22.88C263.83 22.92 264.04 22.93 264.34 22.93C265.59 22.93 267.03 22.6 268.66 21.94C270.29 21.28 271.76 20.47 273.09 19.53C273.14 19.68 273.55 20.9 273.6 21.06C272.5 22.24 271.07 23.23 269.31 24.05C267.55 24.86 265.63 25.43 263.55 25.77C263.24 29.23 262.47 32.23 261.22 34.81C259.97 37.38 258.36 39.36 256.39 40.77C254.43 42.17 252.28 42.87 249.97 42.87C247.17 42.87 244.96 42.15 243.32 40.71C241.7 39.27 240.88 37 240.88 33.89ZM257.36 31.94C258.04 30.14 258.53 28.14 258.83 25.94C257.81 25.72 257.3 24.92 257.3 23.56C257.3 22.01 257.89 20.98 259.06 20.49C258.98 19.25 258.79 18.38 258.49 17.91C258.19 17.44 257.66 17.2 256.91 17.2C255.65 17.2 254.44 18.11 253.26 19.93C252.1 21.75 251.14 23.93 250.43 26.45C249.71 28.99 249.35 31.23 249.35 33.16C249.35 34.98 249.56 36.2 249.97 36.82C250.39 37.45 251.14 37.76 252.25 37.76C253.15 37.76 254.06 37.24 254.97 36.2C255.88 35.16 256.67 33.73 257.36 31.94ZM294.45 36.56C294.45 35.77 294.54 34.88 294.73 33.87C294.92 32.87 295.12 31.9 295.32 30.94C295.53 30 295.67 29.4 295.75 29.12C296.05 27.8 296.34 26.49 296.61 25.21C296.87 23.93 297 22.88 297 22.09C297 20.15 296.32 19.19 294.95 19.19C293.97 19.19 293.1 19.67 292.34 20.63C291.59 21.6 290.97 22.86 290.52 24.42C290.27 25.63 288.98 31.7 286.66 42.65C285.84 42.65 279.3 42.65 278.49 42.65C280.97 30.89 282.35 24.36 282.63 23.05C282.74 22.59 282.8 22.12 282.8 21.63C282.8 19.96 282.23 19.13 281.1 19.13C280.03 19.13 279.12 19.61 278.35 20.58C277.56 21.55 276.95 22.82 276.5 24.42C276.24 25.63 274.95 31.7 272.64 42.65C272.09 42.65 269.36 42.65 264.45 42.65L270.48 14.25C275.39 14.25 278.11 14.25 278.66 14.25C278.28 16.02 278.08 17 278.03 17.2C279.96 15.04 282.27 13.96 284.96 13.96C288.29 13.96 290.24 15.59 290.8 18.85C292.89 15.62 295.52 14.02 298.7 14.02C300.63 14.02 302.17 14.55 303.3 15.61C304.44 16.67 305.01 18.27 305.01 20.43C305.01 21.54 304.88 22.76 304.61 24.1C304.35 25.44 303.96 27.08 303.47 29.01C303.17 30.19 302.9 31.33 302.65 32.45C302.41 33.56 302.28 34.44 302.28 35.09C302.28 35.85 302.45 36.43 302.79 36.85C303.13 37.27 303.72 37.48 304.56 37.48C305.69 37.48 306.59 37.06 307.28 36.25C307.96 35.44 308.64 34.18 309.32 32.48C309.57 32.48 311.47 32.48 311.71 32.48C310.31 36.64 308.69 39.43 306.86 40.86C305.02 42.27 303.11 42.99 301.14 42.99C298.83 42.99 297.14 42.36 296.06 41.14C294.98 39.91 294.45 38.38 294.45 36.56ZM308.53 33.95C308.53 31.34 309.04 28.46 310.07 25.32C311.08 22.18 312.75 19.46 315.06 17.17C317.38 14.88 320.31 13.74 323.86 13.74C328.03 13.74 330.11 15.55 330.11 19.19C330.11 21.31 329.5 23.26 328.3 25.04C327.08 26.82 325.48 28.24 323.47 29.33C321.46 30.4 319.32 31.02 317.04 31.17C316.97 32.01 316.93 32.57 316.93 32.88C316.93 36.02 318.11 37.59 320.46 37.59C321.52 37.59 322.66 37.31 323.86 36.73C325.07 36.17 326.18 35.45 327.16 34.58C326.14 40.19 322.86 42.99 317.34 42.99C314.56 42.99 312.41 42.25 310.86 40.8C309.3 39.34 308.53 37.05 308.53 33.95ZM324.57 23.53C325.35 22.11 325.74 20.62 325.74 19.08C325.74 17.52 325.27 16.75 324.32 16.75C323 16.75 321.68 17.94 320.37 20.35C319.06 22.76 318.09 25.45 317.45 28.44C318.88 28.4 320.24 27.93 321.51 27.03C322.78 26.11 323.8 24.95 324.57 23.53Z" id="anKZpSANb"></path><path d="M128.63 47.13C127.86 46.26 127.46 44.91 127.46 43.1C127.46 40.56 128.23 37.16 129.76 32.88C131.3 28.59 133.32 24.3 135.82 19.98C133.92 20.1 132.42 20.38 131.33 20.83C130.22 21.29 129.51 21.99 129.17 22.93C129.32 22.93 129.48 23.12 129.65 23.5C129.82 23.89 129.9 24.28 129.9 24.7C129.9 25.38 129.6 25.91 129 26.31C128.39 26.72 127.63 26.92 126.72 26.92C125.67 26.92 124.81 26.63 124.17 26.06C123.53 25.49 123.21 24.68 123.21 23.61C123.21 22.33 123.71 21.15 124.71 20.1C125.71 19.04 127.1 18.19 128.88 17.57C130.67 16.95 132.63 16.63 134.79 16.63C135.58 16.63 136.57 16.69 137.74 16.8C140.84 11.88 144.14 7.85 147.6 4.73C151.06 1.61 154.37 0.05 157.51 0.05C159.32 0.05 160.82 0.32 161.99 0.84C161.4 3.63 158.43 17.56 153.08 42.65C152.26 42.65 145.72 42.65 144.9 42.65C147.52 30.27 148.99 23.4 149.28 22.03C147.87 21.39 146.59 20.91 145.41 20.6C144.24 20.3 142.98 20.1 141.66 19.98C139.5 24.64 137.73 29.41 136.35 34.26C134.97 39.13 134.28 43.02 134.28 45.94C134.28 47.37 134.54 48.44 135.07 49.12C133.68 49.12 132.44 49 131.38 48.78C130.32 48.55 129.4 48.01 128.63 47.13ZM142.85 17.54C145.58 18.07 147.89 18.74 149.79 19.53C150 18.49 151.1 13.35 153.08 4.08C150.86 5.74 149.17 7.36 147.99 8.94C146.23 11.3 144.52 14.17 142.85 17.54ZM160.18 36.17C160.18 35.22 160.33 33.99 160.63 32.48C160.89 31.26 162.18 25.18 164.49 14.25C165.31 14.25 171.86 14.25 172.68 14.25C170.22 25.83 168.86 32.27 168.58 33.55C168.47 34.01 168.41 34.48 168.41 34.98C168.41 36.64 168.98 37.48 170.12 37.48C171.18 37.48 172.08 37.03 172.85 36.14C173.6 35.25 174.21 34.03 174.66 32.48C174.91 31.26 176.21 25.18 178.53 14.25C179.34 14.25 185.88 14.25 186.7 14.25C184.25 25.83 182.88 32.27 182.61 33.55C182.42 34.51 182.33 35.19 182.33 35.6C182.33 36.85 182.97 37.48 184.26 37.48C186 37.48 187.62 36.38 189.12 34.18C190.61 31.99 191.81 29.38 192.72 26.34C193.64 23.31 194.09 20.7 194.09 18.5C194.01 18.7 193.77 18.84 193.34 18.94C192.93 19.03 192.57 19.08 192.27 19.08C191.63 19.08 191.13 18.78 190.76 18.16C190.4 17.56 190.22 16.9 190.22 16.18C190.22 15.27 190.51 14.53 191.11 13.96C191.69 13.4 192.57 13.11 193.75 13.11C194.99 13.11 195.9 13.58 196.47 14.5C197.04 15.43 197.32 16.62 197.32 18.05C197.32 21.46 196.74 25.1 195.56 28.98C194.39 32.87 192.59 36.17 190.16 38.89C187.74 41.62 184.73 42.99 181.14 42.99C179.28 42.99 177.76 42.59 176.59 41.79C175.42 41 174.66 39.8 174.32 38.21C172.2 41.39 169.51 42.99 166.25 42.99C164.43 42.99 162.97 42.41 161.85 41.28C160.74 40.15 160.18 38.44 160.18 36.17ZM197.44 33.95C197.44 31.34 197.95 28.46 198.97 25.32C199.99 22.18 201.66 19.46 203.96 17.17C206.27 14.88 209.21 13.74 212.77 13.74C216.93 13.74 219.02 15.55 219.02 19.19C219.02 21.31 218.41 23.26 217.2 25.04C215.99 26.82 214.38 28.24 212.38 29.33C210.37 30.4 208.23 31.02 205.95 31.17C205.88 32.31 205.84 33.06 205.84 33.44C205.84 35.3 206.16 36.55 206.81 37.22C207.45 37.88 208.49 38.21 209.93 38.21C211.97 38.21 213.73 37.74 215.19 36.79C216.64 35.85 218.24 34.4 219.99 32.48C220.18 32.48 221.72 32.48 221.91 32.48C217.72 39.48 212.51 42.99 206.29 42.99C203.49 42.99 201.31 42.25 199.77 40.8C198.21 39.34 197.44 37.05 197.44 33.95ZM213.48 23.5C214.25 22.1 214.64 20.62 214.64 19.08C214.64 17.52 214.17 16.75 213.23 16.75C211.86 16.75 210.53 17.94 209.22 20.32C207.92 22.71 206.98 25.42 206.41 28.44C207.81 28.37 209.14 27.88 210.41 26.97C211.68 26.06 212.71 24.91 213.48 23.5ZM219.07 39.2C218.47 38.09 218.17 36.92 218.17 35.71C218.17 34.46 218.46 33.38 219.05 32.45C219.63 31.52 220.35 30.85 221.18 30.43C222.66 27.78 223.94 25.1 225.03 22.4C226.14 19.69 227.18 16.77 228.17 13.63C229 13.51 235.72 12.6 236.57 12.48C236.76 17.33 237.08 22.58 237.53 28.22C237.72 30.49 237.81 32.14 237.81 33.16C237.81 34.03 237.74 34.75 237.59 35.32C239.37 34.29 240.73 33.35 241.68 32.48C241.92 32.48 243.83 32.48 244.07 32.48C241.64 35.28 238.75 37.65 235.37 39.57C234.28 40.75 232.92 41.61 231.32 42.16C229.7 42.71 228.09 42.99 226.46 42.99C224.64 42.99 223.11 42.64 221.86 41.93C220.61 41.23 219.68 40.33 219.07 39.2ZM229.58 33.22C229.58 32.08 229.47 30.49 229.24 28.44C228.86 24.13 228.62 21.24 228.51 19.76C227.59 22.75 226.06 26.32 223.9 30.49C224.77 30.94 225.2 31.6 225.2 32.48C225.2 33.2 224.97 33.84 224.5 34.4C224.03 34.98 223.43 35.26 222.71 35.26C221.91 35.26 221.4 35.02 221.18 34.53C221.18 35.88 221.45 36.88 222 37.54C222.54 38.18 223.43 38.5 224.64 38.5C226.04 38.5 227.21 38.08 228.17 37.25C229.11 36.41 229.58 35.07 229.58 33.22ZM240.88 33.89C240.88 31.32 241.42 28.46 242.47 25.32C243.53 22.18 245.24 19.46 247.59 17.17C249.94 14.88 252.89 13.74 256.44 13.74C261.29 13.74 263.72 16.77 263.72 22.82C263.72 22.83 263.72 22.87 263.72 22.88C263.83 22.92 264.04 22.93 264.34 22.93C265.59 22.93 267.03 22.6 268.66 21.94C270.29 21.28 271.76 20.47 273.09 19.53C273.14 19.68 273.55 20.9 273.6 21.06C272.5 22.24 271.07 23.23 269.31 24.05C267.55 24.86 265.63 25.43 263.55 25.77C263.24 29.23 262.47 32.23 261.22 34.81C259.97 37.38 258.36 39.36 256.39 40.77C254.43 42.17 252.28 42.87 249.97 42.87C247.17 42.87 244.96 42.15 243.32 40.71C241.7 39.27 240.88 37 240.88 33.89ZM257.36 31.94C258.04 30.14 258.53 28.14 258.83 25.94C257.81 25.72 257.3 24.92 257.3 23.56C257.3 22.01 257.89 20.98 259.06 20.49C258.98 19.25 258.79 18.38 258.49 17.91C258.19 17.44 257.66 17.2 256.91 17.2C255.65 17.2 254.44 18.11 253.26 19.93C252.1 21.75 251.14 23.93 250.43 26.45C249.71 28.99 249.35 31.23 249.35 33.16C249.35 34.98 249.56 36.2 249.97 36.82C250.39 37.45 251.14 37.76 252.25 37.76C253.15 37.76 254.06 37.24 254.97 36.2C255.88 35.16 256.67 33.73 257.36 31.94ZM294.45 36.56C294.45 35.77 294.54 34.88 294.73 33.87C294.92 32.87 295.12 31.9 295.32 30.94C295.53 30 295.67 29.4 295.75 29.12C296.05 27.8 296.34 26.49 296.61 25.21C296.87 23.93 297 22.88 297 22.09C297 20.15 296.32 19.19 294.95 19.19C293.97 19.19 293.1 19.67 292.34 20.63C291.59 21.6 290.97 22.86 290.52 24.42C290.27 25.63 288.98 31.7 286.66 42.65C285.84 42.65 279.3 42.65 278.49 42.65C280.97 30.89 282.35 24.36 282.63 23.05C282.74 22.59 282.8 22.12 282.8 21.63C282.8 19.96 282.23 19.13 281.1 19.13C280.03 19.13 279.12 19.61 278.35 20.58C277.56 21.55 276.95 22.82 276.5 24.42C276.24 25.63 274.95 31.7 272.64 42.65C272.09 42.65 269.36 42.65 264.45 42.65L270.48 14.25C275.39 14.25 278.11 14.25 278.66 14.25C278.28 16.02 278.08 17 278.03 17.2C279.96 15.04 282.27 13.96 284.96 13.96C288.29 13.96 290.24 15.59 290.8 18.85C292.89 15.62 295.52 14.02 298.7 14.02C300.63 14.02 302.17 14.55 303.3 15.61C304.44 16.67 305.01 18.27 305.01 20.43C305.01 21.54 304.88 22.76 304.61 24.1C304.35 25.44 303.96 27.08 303.47 29.01C303.17 30.19 302.9 31.33 302.65 32.45C302.41 33.56 302.28 34.44 302.28 35.09C302.28 35.85 302.45 36.43 302.79 36.85C303.13 37.27 303.72 37.48 304.56 37.48C305.69 37.48 306.59 37.06 307.28 36.25C307.96 35.44 308.64 34.18 309.32 32.48C309.57 32.48 311.47 32.48 311.71 32.48C310.31 36.64 308.69 39.43 306.86 40.86C305.02 42.27 303.11 42.99 301.14 42.99C298.83 42.99 297.14 42.36 296.06 41.14C294.98 39.91 294.45 38.38 294.45 36.56ZM308.53 33.95C308.53 31.34 309.04 28.46 310.07 25.32C311.08 22.18 312.75 19.46 315.06 17.17C317.38 14.88 320.31 13.74 323.86 13.74C328.03 13.74 330.11 15.55 330.11 19.19C330.11 21.31 329.5 23.26 328.3 25.04C327.08 26.82 325.48 28.24 323.47 29.33C321.46 30.4 319.32 31.02 317.04 31.17C316.97 32.01 316.93 32.57 316.93 32.88C316.93 36.02 318.11 37.59 320.46 37.59C321.52 37.59 322.66 37.31 323.86 36.73C325.07 36.17 326.18 35.45 327.16 34.58C326.14 40.19 322.86 42.99 317.34 42.99C314.56 42.99 312.41 42.25 310.86 40.8C309.3 39.34 308.53 37.05 308.53 33.95ZM324.57 23.53C325.35 22.11 325.74 20.62 325.74 19.08C325.74 17.52 325.27 16.75 324.32 16.75C323 16.75 321.68 17.94 320.37 20.35C319.06 22.76 318.09 25.45 317.45 28.44C318.88 28.4 320.24 27.93 321.51 27.03C322.78 26.11 323.8 24.95 324.57 23.53Z" id="a16H4klfpf"></path><path d="M151.31 64.68C153.21 63.05 155.43 62.24 157.96 62.24C160.09 62.24 161.76 62.94 163.02 64.34C164.26 65.74 164.9 68.03 164.9 71.21C164.9 74.2 164.45 77.23 163.58 80.27C162.72 83.32 161.24 85.91 159.15 88.05C157.08 90.18 154.33 91.26 150.92 91.26C148.49 91.26 146.89 90.58 146.09 89.21C145.89 90.13 144.91 94.76 143.14 103.07C142.57 103.21 139.71 103.89 134.56 105.12L144.05 60.42L152.23 60.42C151.66 63.07 151.35 64.49 151.31 64.68ZM156.28 77.66C156.84 75.29 157.11 73.08 157.11 71.04C157.11 67.9 156.16 66.32 154.28 66.32C153.59 66.32 152.9 66.58 152.2 67.07C151.49 67.56 150.88 68.24 150.35 69.11C150.02 70.7 147.34 83.42 147 85.01C147.3 85.88 148.02 86.32 149.16 86.32C150.97 86.32 152.48 85.47 153.67 83.76C154.87 82.05 155.74 80.03 156.28 77.66ZM177.61 66.04C178.9 64.91 180.06 64.04 181.11 63.43C182.15 62.82 183.28 62.52 184.49 62.52C185.69 62.52 186.66 62.94 187.35 63.77C188.05 64.61 188.41 65.61 188.41 66.78C188.41 67.88 188.04 68.84 187.33 69.68C186.61 70.51 185.6 70.92 184.32 70.92C183.49 70.92 182.92 70.73 182.64 70.33C182.35 69.93 182.14 69.36 181.99 68.59C181.87 68.1 181.76 67.75 181.65 67.52C181.53 67.29 181.33 67.18 181.02 67.18C180.22 67.18 179.55 67.34 179.01 67.66C178.46 67.98 177.74 68.54 176.87 69.34C176.57 70.77 175.05 77.97 172.33 90.92C171.79 90.92 169.06 90.92 164.15 90.92L170.18 62.52L178.36 62.52C177.9 64.71 177.65 65.88 177.61 66.04ZM186.87 82.17C186.87 79.59 187.4 76.73 188.47 73.59C189.52 70.45 191.23 67.74 193.57 65.44C195.92 63.15 198.87 62.01 202.44 62.01C207.28 62.01 209.71 65.04 209.71 71.09C209.71 71.1 209.71 71.15 209.71 71.15C209.82 71.19 210.03 71.21 210.33 71.21C211.57 71.21 213.02 70.88 214.64 70.22C216.27 69.56 217.75 68.75 219.07 67.8C219.12 67.96 219.53 69.19 219.58 69.34C218.49 70.51 217.05 71.5 215.3 72.32C213.54 73.13 211.61 73.71 209.54 74.05C209.23 77.5 208.45 80.51 207.21 83.08C205.95 85.66 204.35 87.64 202.38 89.04C200.41 90.45 198.27 91.15 195.96 91.15C193.15 91.15 190.94 90.43 189.32 88.99C187.68 87.54 186.87 85.28 186.87 82.17ZM203.34 80.22C204.02 78.41 204.52 76.41 204.82 74.22C203.79 73.99 203.28 73.2 203.28 71.84C203.28 70.28 203.87 69.27 205.05 68.76C204.97 67.52 204.78 66.66 204.48 66.18C204.18 65.71 203.64 65.47 202.89 65.47C201.64 65.47 200.43 66.38 199.26 68.2C198.08 70.02 197.13 72.2 196.42 74.74C195.69 77.27 195.33 79.5 195.33 81.43C195.33 83.25 195.54 84.47 195.96 85.1C196.38 85.72 197.13 86.04 198.23 86.04C199.14 86.04 200.05 85.52 200.95 84.47C201.87 83.43 202.66 82.01 203.34 80.22ZM200.84 98.76C200.84 97.16 201.29 95.86 202.21 94.84C203.11 93.82 204.24 93 205.56 92.39C206.89 91.79 208.58 91.15 210.67 90.47C211.3 87.47 216.34 63.57 216.97 60.59C218 55.9 219.7 52.68 222.08 50.97C224.47 49.24 227.19 48.38 230.26 48.38C233.11 48.38 235.5 48.85 237.48 49.8C239.45 50.75 240.43 52.45 240.43 54.91C240.43 56.5 240 57.66 239.15 58.4C238.3 59.14 237.23 59.51 235.95 59.51C234.96 59.51 234.15 59.28 233.5 58.8C232.85 58.32 232.53 57.54 232.53 56.45C232.53 55.72 232.71 55.08 233.07 54.51C233.44 53.95 233.9 53.66 234.47 53.66C234.73 53.66 234.88 53.68 234.92 53.72C234.88 52.96 234.59 52.39 234.04 52.01C233.5 51.64 232.74 51.45 231.8 51.45C230.13 51.45 228.8 52.05 227.79 53.27C226.79 54.48 226.12 56.01 225.78 57.86C225.72 58.17 225.4 59.73 224.81 62.52C225.12 62.52 226.63 62.52 229.35 62.52L228.9 64.79C226.18 64.79 224.66 64.79 224.36 64.79C220.48 83.2 218.32 93.42 217.89 95.46C217.12 99.02 215.82 101.52 213.96 102.96C212.11 104.4 210.08 105.12 207.89 105.12C205.8 105.12 204.1 104.54 202.8 103.38C201.49 102.23 200.84 100.68 200.84 98.76ZM227.31 84.44C227.31 83.5 227.46 82.26 227.76 80.75C228.03 79.53 229.31 73.46 231.63 62.52C232.45 62.52 238.99 62.52 239.81 62.52C237.35 74.1 235.99 80.55 235.71 81.83C235.56 82.39 235.49 83.01 235.49 83.65C235.49 84.4 235.66 84.94 236.03 85.27C236.39 85.59 236.99 85.75 237.81 85.75C238.92 85.75 239.94 85.29 240.88 84.36C241.83 83.43 242.51 82.22 242.93 80.75C243.16 80.75 245.08 80.75 245.31 80.75C243.92 84.84 242.12 87.61 239.92 89.07C237.72 90.53 235.54 91.26 233.39 91.26C231.57 91.26 230.1 90.69 228.99 89.55C227.87 88.42 227.31 86.71 227.31 84.44ZM209.59 95.63C209.66 95.3 210.21 92.66 210.27 92.34C208.34 92.94 206.81 93.71 205.67 94.64C204.54 95.56 203.96 96.62 203.96 97.79C203.96 98.63 204.24 99.21 204.77 99.55C205.29 99.89 205.8 100.06 206.29 100.06C206.94 100.06 207.58 99.7 208.2 98.99C208.82 98.26 209.28 97.15 209.59 95.63ZM242.47 84.44C242.47 83.5 242.63 82.26 242.93 80.75C243.33 78.85 245.36 69.37 249.01 52.3C249.85 52.19 256.58 51.27 257.42 51.16C253.49 69.57 251.31 79.79 250.88 81.83C250.73 82.39 250.65 83.01 250.65 83.65C250.65 84.4 250.83 84.94 251.19 85.27C251.56 85.59 252.15 85.75 252.98 85.75C254.08 85.75 255.1 85.29 256.05 84.36C257 83.43 257.68 82.22 258.09 80.75C258.33 80.75 260.24 80.75 260.48 80.75C259.07 84.84 257.28 87.61 255.09 89.07C252.89 90.53 250.71 91.26 248.55 91.26C246.74 91.26 245.27 90.69 244.15 89.55C243.03 88.42 242.47 86.71 242.47 84.44ZM257.3 82.22C257.3 79.61 257.81 76.73 258.83 73.59C259.86 70.45 261.52 67.74 263.83 65.44C266.14 63.15 269.07 62.01 272.64 62.01C276.8 62.01 278.88 63.83 278.88 67.46C278.88 69.59 278.28 71.53 277.06 73.31C275.85 75.09 274.24 76.52 272.23 77.6C270.23 78.68 268.09 79.29 265.82 79.44C265.74 80.28 265.71 80.85 265.71 81.15C265.71 84.29 266.88 85.87 269.22 85.87C270.29 85.87 271.42 85.58 272.64 85.01C273.85 84.44 274.94 83.72 275.93 82.86C274.9 88.46 271.63 91.26 266.1 91.26C263.34 91.26 261.18 90.53 259.63 89.07C258.08 87.61 257.3 85.34 257.3 82.22ZM273.35 71.81C274.12 70.39 274.51 68.9 274.51 67.35C274.51 65.79 274.03 65.02 273.09 65.02C271.76 65.02 270.45 66.22 269.14 68.62C267.84 71.03 266.86 73.73 266.22 76.72C267.66 76.68 269.01 76.21 270.28 75.3C271.54 74.39 272.56 73.23 273.35 71.81ZM291.38 78.31L279.96 78.31L280.99 73.82L292.34 73.82L291.38 78.31ZM294.62 82.22C294.62 79.61 295.13 76.73 296.17 73.59C297.22 70.45 298.88 67.74 301.17 65.44C303.46 63.15 306.37 62.01 309.9 62.01C312.17 62.01 313.78 62.5 314.75 63.48C315.71 64.47 316.2 65.72 316.2 67.24C316.2 68.56 315.91 69.59 315.35 70.3C314.78 71.02 314.05 71.38 313.19 71.38C312.55 71.38 311.88 71.15 311.2 70.7C311.65 69.45 311.88 68.33 311.88 67.35C311.88 66.63 311.74 66.06 311.48 65.64C311.22 65.23 310.82 65.02 310.29 65.02C309.15 65.02 308.02 65.94 306.89 67.8C305.75 69.66 304.82 71.92 304.09 74.57C303.38 77.22 303.02 79.59 303.02 81.72C303.02 83.57 303.34 84.83 303.98 85.5C304.63 86.16 305.67 86.49 307.11 86.49C309.15 86.49 310.9 86.02 312.37 85.06C313.82 84.12 315.42 82.69 317.16 80.75C317.36 80.75 318.9 80.75 319.09 80.75C314.89 87.76 309.69 91.26 303.47 91.26C300.67 91.26 298.49 90.53 296.95 89.07C295.39 87.61 294.62 85.34 294.62 82.22ZM316.42 82.11C316.42 79.31 316.98 76.37 318.1 73.28C319.21 70.2 320.88 67.59 323.1 65.44C325.32 63.3 327.96 62.24 331.02 62.24C332.57 62.24 333.73 62.5 334.48 63.03C335.24 63.56 335.62 64.27 335.62 65.13C335.62 65.16 335.62 65.29 335.62 65.53C335.67 65.33 335.87 64.33 336.25 62.52C341.16 62.52 343.88 62.52 344.43 62.52C341.97 74.1 340.6 80.55 340.33 81.83C340.18 82.39 340.11 83.01 340.11 83.65C340.11 85.28 340.88 86.09 342.44 86.09C343.49 86.09 344.42 85.6 345.19 84.61C345.96 83.63 346.59 82.34 347.04 80.75C347.28 80.75 349.19 80.75 349.43 80.75C348.02 84.84 346.29 87.61 344.23 89.07C342.16 90.53 340.09 91.26 338 91.26C336.42 91.26 335.14 90.82 334.17 89.92C333.21 89.03 332.63 87.73 332.44 86.04C331.34 87.58 330.12 88.85 328.78 89.81C327.43 90.78 325.84 91.26 323.98 91.26C321.82 91.26 320.03 90.52 318.58 89.04C317.14 87.56 316.42 85.26 316.42 82.11ZM332.38 80.75C332.65 79.46 334.84 69.2 335.11 67.92C335.11 67.43 334.92 66.94 334.54 66.47C334.16 65.99 333.58 65.76 332.78 65.76C331.27 65.76 329.9 66.64 328.69 68.4C327.48 70.16 326.53 72.28 325.85 74.76C325.17 77.24 324.83 79.42 324.83 81.32C324.83 83.21 325.1 84.42 325.66 84.95C326.2 85.49 326.87 85.75 327.67 85.75C328.62 85.75 329.55 85.31 330.49 84.41C331.41 83.53 332.04 82.3 332.38 80.75ZM358.34 66.04C359.63 64.91 360.79 64.04 361.83 63.43C362.88 62.82 364 62.52 365.21 62.52C366.42 62.52 367.38 62.94 368.08 63.77C368.78 64.61 369.13 65.61 369.13 66.78C369.13 67.88 368.77 68.84 368.05 69.68C367.34 70.51 366.33 70.92 365.04 70.92C364.21 70.92 363.65 70.73 363.37 70.33C363.08 69.93 362.87 69.36 362.72 68.59C362.6 68.1 362.49 67.75 362.38 67.52C362.26 67.29 362.04 67.18 361.74 67.18C360.95 67.18 360.28 67.34 359.73 67.66C359.18 67.98 358.47 68.54 357.6 69.34C357.3 70.77 355.78 77.97 353.06 90.92C352.52 90.92 349.79 90.92 344.88 90.92L350.9 62.52L359.07 62.52C358.62 64.71 358.37 65.88 358.34 66.04ZM367.66 82.11C367.66 79.31 368.21 76.37 369.33 73.28C370.45 70.2 372.11 67.59 374.33 65.44C376.54 63.3 379.18 62.24 382.25 62.24C383.81 62.24 384.96 62.5 385.71 63.03C386.47 63.56 386.85 64.27 386.85 65.13C386.85 65.15 386.85 65.22 386.85 65.36C387.03 64.49 387.96 60.14 389.63 52.3C394.68 51.62 397.48 51.23 398.04 51.16C394.12 69.57 391.95 79.79 391.51 81.83C391.36 82.39 391.28 83.01 391.28 83.65C391.28 84.4 391.46 84.94 391.82 85.27C392.18 85.59 392.77 85.75 393.6 85.75C394.67 85.75 395.59 85.3 396.37 84.38C397.14 83.48 397.76 82.26 398.21 80.75C398.45 80.75 400.36 80.75 400.59 80.75C398.28 87.53 394.48 90.92 389.18 90.92C387.62 90.92 386.37 90.51 385.4 89.67C384.44 88.84 383.84 87.62 383.62 86.04C382.63 87.54 381.45 88.8 380.06 89.78C378.68 90.77 377.06 91.26 375.2 91.26C373.05 91.26 371.25 90.52 369.81 89.04C368.37 87.56 367.66 85.26 367.66 82.11ZM383.56 81.04C383.56 81.02 383.56 80.92 383.56 80.75C385.22 72.95 386.16 68.61 386.34 67.75C386 66.42 385.22 65.76 384.01 65.76C382.49 65.76 381.14 66.64 379.92 68.4C378.71 70.16 377.76 72.28 377.08 74.76C376.4 77.24 376.06 79.42 376.06 81.32C376.06 83.21 376.33 84.42 376.88 84.95C377.43 85.49 378.11 85.75 378.9 85.75C379.81 85.75 380.73 85.34 381.65 84.5C382.58 83.67 383.22 82.52 383.56 81.04ZM397.3 87.48C396.7 86.37 396.4 85.21 396.4 83.99C396.4 82.74 396.69 81.65 397.27 80.72C397.86 79.8 398.57 79.12 399.41 78.71C400.88 76.06 402.17 73.38 403.26 70.67C404.37 67.96 405.4 65.04 406.39 61.9C407.23 61.79 413.95 60.87 414.8 60.76C414.99 65.61 415.31 70.85 415.76 76.49C415.95 78.76 416.04 80.41 416.04 81.43C416.04 83.74 415.46 85.64 414.28 87.11C413.11 88.59 411.66 89.65 409.94 90.29C408.22 90.94 406.46 91.26 404.69 91.26C402.87 91.26 401.33 90.91 400.08 90.2C398.83 89.51 397.91 88.6 397.3 87.48ZM407.81 81.49C407.81 80.36 407.7 78.76 407.47 76.72C407.09 72.41 406.85 69.51 406.72 68.03C405.82 71.02 404.29 74.6 402.13 78.76C403 79.22 403.43 79.89 403.43 80.75C403.43 81.47 403.2 82.11 402.73 82.69C402.25 83.25 401.66 83.54 400.93 83.54C400.14 83.54 399.63 83.29 399.41 82.8C399.41 84.16 399.68 85.17 400.23 85.81C400.77 86.45 401.66 86.77 402.87 86.77C404.27 86.77 405.44 86.36 406.39 85.53C407.34 84.69 407.81 83.35 407.81 81.49Z" id="k4cSbABDF"></path><path d="M151.31 64.68C153.21 63.05 155.43 62.24 157.96 62.24C160.09 62.24 161.76 62.94 163.02 64.34C164.26 65.74 164.9 68.03 164.9 71.21C164.9 74.2 164.45 77.23 163.58 80.27C162.72 83.32 161.24 85.91 159.15 88.05C157.08 90.18 154.33 91.26 150.92 91.26C148.49 91.26 146.89 90.58 146.09 89.21C145.89 90.13 144.91 94.76 143.14 103.07C142.57 103.21 139.71 103.89 134.56 105.12L144.05 60.42L152.23 60.42C151.66 63.07 151.35 64.49 151.31 64.68ZM156.28 77.66C156.84 75.29 157.11 73.08 157.11 71.04C157.11 67.9 156.16 66.32 154.28 66.32C153.59 66.32 152.9 66.58 152.2 67.07C151.49 67.56 150.88 68.24 150.35 69.11C150.02 70.7 147.34 83.42 147 85.01C147.3 85.88 148.02 86.32 149.16 86.32C150.97 86.32 152.48 85.47 153.67 83.76C154.87 82.05 155.74 80.03 156.28 77.66ZM177.61 66.04C178.9 64.91 180.06 64.04 181.11 63.43C182.15 62.82 183.28 62.52 184.49 62.52C185.69 62.52 186.66 62.94 187.35 63.77C188.05 64.61 188.41 65.61 188.41 66.78C188.41 67.88 188.04 68.84 187.33 69.68C186.61 70.51 185.6 70.92 184.32 70.92C183.49 70.92 182.92 70.73 182.64 70.33C182.35 69.93 182.14 69.36 181.99 68.59C181.87 68.1 181.76 67.75 181.65 67.52C181.53 67.29 181.33 67.18 181.02 67.18C180.22 67.18 179.55 67.34 179.01 67.66C178.46 67.98 177.74 68.54 176.87 69.34C176.57 70.77 175.05 77.97 172.33 90.92C171.79 90.92 169.06 90.92 164.15 90.92L170.18 62.52L178.36 62.52C177.9 64.71 177.65 65.88 177.61 66.04ZM186.87 82.17C186.87 79.59 187.4 76.73 188.47 73.59C189.52 70.45 191.23 67.74 193.57 65.44C195.92 63.15 198.87 62.01 202.44 62.01C207.28 62.01 209.71 65.04 209.71 71.09C209.71 71.1 209.71 71.15 209.71 71.15C209.82 71.19 210.03 71.21 210.33 71.21C211.57 71.21 213.02 70.88 214.64 70.22C216.27 69.56 217.75 68.75 219.07 67.8C219.12 67.96 219.53 69.19 219.58 69.34C218.49 70.51 217.05 71.5 215.3 72.32C213.54 73.13 211.61 73.71 209.54 74.05C209.23 77.5 208.45 80.51 207.21 83.08C205.95 85.66 204.35 87.64 202.38 89.04C200.41 90.45 198.27 91.15 195.96 91.15C193.15 91.15 190.94 90.43 189.32 88.99C187.68 87.54 186.87 85.28 186.87 82.17ZM203.34 80.22C204.02 78.41 204.52 76.41 204.82 74.22C203.79 73.99 203.28 73.2 203.28 71.84C203.28 70.28 203.87 69.27 205.05 68.76C204.97 67.52 204.78 66.66 204.48 66.18C204.18 65.71 203.64 65.47 202.89 65.47C201.64 65.47 200.43 66.38 199.26 68.2C198.08 70.02 197.13 72.2 196.42 74.74C195.69 77.27 195.33 79.5 195.33 81.43C195.33 83.25 195.54 84.47 195.96 85.1C196.38 85.72 197.13 86.04 198.23 86.04C199.14 86.04 200.05 85.52 200.95 84.47C201.87 83.43 202.66 82.01 203.34 80.22ZM200.84 98.76C200.84 97.16 201.29 95.86 202.21 94.84C203.11 93.82 204.24 93 205.56 92.39C206.89 91.79 208.58 91.15 210.67 90.47C211.3 87.47 216.34 63.57 216.97 60.59C218 55.9 219.7 52.68 222.08 50.97C224.47 49.24 227.19 48.38 230.26 48.38C233.11 48.38 235.5 48.85 237.48 49.8C239.45 50.75 240.43 52.45 240.43 54.91C240.43 56.5 240 57.66 239.15 58.4C238.3 59.14 237.23 59.51 235.95 59.51C234.96 59.51 234.15 59.28 233.5 58.8C232.85 58.32 232.53 57.54 232.53 56.45C232.53 55.72 232.71 55.08 233.07 54.51C233.44 53.95 233.9 53.66 234.47 53.66C234.73 53.66 234.88 53.68 234.92 53.72C234.88 52.96 234.59 52.39 234.04 52.01C233.5 51.64 232.74 51.45 231.8 51.45C230.13 51.45 228.8 52.05 227.79 53.27C226.79 54.48 226.12 56.01 225.78 57.86C225.72 58.17 225.4 59.73 224.81 62.52C225.12 62.52 226.63 62.52 229.35 62.52L228.9 64.79C226.18 64.79 224.66 64.79 224.36 64.79C220.48 83.2 218.32 93.42 217.89 95.46C217.12 99.02 215.82 101.52 213.96 102.96C212.11 104.4 210.08 105.12 207.89 105.12C205.8 105.12 204.1 104.54 202.8 103.38C201.49 102.23 200.84 100.68 200.84 98.76ZM227.31 84.44C227.31 83.5 227.46 82.26 227.76 80.75C228.03 79.53 229.31 73.46 231.63 62.52C232.45 62.52 238.99 62.52 239.81 62.52C237.35 74.1 235.99 80.55 235.71 81.83C235.56 82.39 235.49 83.01 235.49 83.65C235.49 84.4 235.66 84.94 236.03 85.27C236.39 85.59 236.99 85.75 237.81 85.75C238.92 85.75 239.94 85.29 240.88 84.36C241.83 83.43 242.51 82.22 242.93 80.75C243.16 80.75 245.08 80.75 245.31 80.75C243.92 84.84 242.12 87.61 239.92 89.07C237.72 90.53 235.54 91.26 233.39 91.26C231.57 91.26 230.1 90.69 228.99 89.55C227.87 88.42 227.31 86.71 227.31 84.44ZM209.59 95.63C209.66 95.3 210.21 92.66 210.27 92.34C208.34 92.94 206.81 93.71 205.67 94.64C204.54 95.56 203.96 96.62 203.96 97.79C203.96 98.63 204.24 99.21 204.77 99.55C205.29 99.89 205.8 100.06 206.29 100.06C206.94 100.06 207.58 99.7 208.2 98.99C208.82 98.26 209.28 97.15 209.59 95.63ZM242.47 84.44C242.47 83.5 242.63 82.26 242.93 80.75C243.33 78.85 245.36 69.37 249.01 52.3C249.85 52.19 256.58 51.27 257.42 51.16C253.49 69.57 251.31 79.79 250.88 81.83C250.73 82.39 250.65 83.01 250.65 83.65C250.65 84.4 250.83 84.94 251.19 85.27C251.56 85.59 252.15 85.75 252.98 85.75C254.08 85.75 255.1 85.29 256.05 84.36C257 83.43 257.68 82.22 258.09 80.75C258.33 80.75 260.24 80.75 260.48 80.75C259.07 84.84 257.28 87.61 255.09 89.07C252.89 90.53 250.71 91.26 248.55 91.26C246.74 91.26 245.27 90.69 244.15 89.55C243.03 88.42 242.47 86.71 242.47 84.44ZM257.3 82.22C257.3 79.61 257.81 76.73 258.83 73.59C259.86 70.45 261.52 67.74 263.83 65.44C266.14 63.15 269.07 62.01 272.64 62.01C276.8 62.01 278.88 63.83 278.88 67.46C278.88 69.59 278.28 71.53 277.06 73.31C275.85 75.09 274.24 76.52 272.23 77.6C270.23 78.68 268.09 79.29 265.82 79.44C265.74 80.28 265.71 80.85 265.71 81.15C265.71 84.29 266.88 85.87 269.22 85.87C270.29 85.87 271.42 85.58 272.64 85.01C273.85 84.44 274.94 83.72 275.93 82.86C274.9 88.46 271.63 91.26 266.1 91.26C263.34 91.26 261.18 90.53 259.63 89.07C258.08 87.61 257.3 85.34 257.3 82.22ZM273.35 71.81C274.12 70.39 274.51 68.9 274.51 67.35C274.51 65.79 274.03 65.02 273.09 65.02C271.76 65.02 270.45 66.22 269.14 68.62C267.84 71.03 266.86 73.73 266.22 76.72C267.66 76.68 269.01 76.21 270.28 75.3C271.54 74.39 272.56 73.23 273.35 71.81ZM291.38 78.31L279.96 78.31L280.99 73.82L292.34 73.82L291.38 78.31ZM294.62 82.22C294.62 79.61 295.13 76.73 296.17 73.59C297.22 70.45 298.88 67.74 301.17 65.44C303.46 63.15 306.37 62.01 309.9 62.01C312.17 62.01 313.78 62.5 314.75 63.48C315.71 64.47 316.2 65.72 316.2 67.24C316.2 68.56 315.91 69.59 315.35 70.3C314.78 71.02 314.05 71.38 313.19 71.38C312.55 71.38 311.88 71.15 311.2 70.7C311.65 69.45 311.88 68.33 311.88 67.35C311.88 66.63 311.74 66.06 311.48 65.64C311.22 65.23 310.82 65.02 310.29 65.02C309.15 65.02 308.02 65.94 306.89 67.8C305.75 69.66 304.82 71.92 304.09 74.57C303.38 77.22 303.02 79.59 303.02 81.72C303.02 83.57 303.34 84.83 303.98 85.5C304.63 86.16 305.67 86.49 307.11 86.49C309.15 86.49 310.9 86.02 312.37 85.06C313.82 84.12 315.42 82.69 317.16 80.75C317.36 80.75 318.9 80.75 319.09 80.75C314.89 87.76 309.69 91.26 303.47 91.26C300.67 91.26 298.49 90.53 296.95 89.07C295.39 87.61 294.62 85.34 294.62 82.22ZM316.42 82.11C316.42 79.31 316.98 76.37 318.1 73.28C319.21 70.2 320.88 67.59 323.1 65.44C325.32 63.3 327.96 62.24 331.02 62.24C332.57 62.24 333.73 62.5 334.48 63.03C335.24 63.56 335.62 64.27 335.62 65.13C335.62 65.16 335.62 65.29 335.62 65.53C335.67 65.33 335.87 64.33 336.25 62.52C341.16 62.52 343.88 62.52 344.43 62.52C341.97 74.1 340.6 80.55 340.33 81.83C340.18 82.39 340.11 83.01 340.11 83.65C340.11 85.28 340.88 86.09 342.44 86.09C343.49 86.09 344.42 85.6 345.19 84.61C345.96 83.63 346.59 82.34 347.04 80.75C347.28 80.75 349.19 80.75 349.43 80.75C348.02 84.84 346.29 87.61 344.23 89.07C342.16 90.53 340.09 91.26 338 91.26C336.42 91.26 335.14 90.82 334.17 89.92C333.21 89.03 332.63 87.73 332.44 86.04C331.34 87.58 330.12 88.85 328.78 89.81C327.43 90.78 325.84 91.26 323.98 91.26C321.82 91.26 320.03 90.52 318.58 89.04C317.14 87.56 316.42 85.26 316.42 82.11ZM332.38 80.75C332.65 79.46 334.84 69.2 335.11 67.92C335.11 67.43 334.92 66.94 334.54 66.47C334.16 65.99 333.58 65.76 332.78 65.76C331.27 65.76 329.9 66.64 328.69 68.4C327.48 70.16 326.53 72.28 325.85 74.76C325.17 77.24 324.83 79.42 324.83 81.32C324.83 83.21 325.1 84.42 325.66 84.95C326.2 85.49 326.87 85.75 327.67 85.75C328.62 85.75 329.55 85.31 330.49 84.41C331.41 83.53 332.04 82.3 332.38 80.75ZM358.34 66.04C359.63 64.91 360.79 64.04 361.83 63.43C362.88 62.82 364 62.52 365.21 62.52C366.42 62.52 367.38 62.94 368.08 63.77C368.78 64.61 369.13 65.61 369.13 66.78C369.13 67.88 368.77 68.84 368.05 69.68C367.34 70.51 366.33 70.92 365.04 70.92C364.21 70.92 363.65 70.73 363.37 70.33C363.08 69.93 362.87 69.36 362.72 68.59C362.6 68.1 362.49 67.75 362.38 67.52C362.26 67.29 362.04 67.18 361.74 67.18C360.95 67.18 360.28 67.34 359.73 67.66C359.18 67.98 358.47 68.54 357.6 69.34C357.3 70.77 355.78 77.97 353.06 90.92C352.52 90.92 349.79 90.92 344.88 90.92L350.9 62.52L359.07 62.52C358.62 64.71 358.37 65.88 358.34 66.04ZM367.66 82.11C367.66 79.31 368.21 76.37 369.33 73.28C370.45 70.2 372.11 67.59 374.33 65.44C376.54 63.3 379.18 62.24 382.25 62.24C383.81 62.24 384.96 62.5 385.71 63.03C386.47 63.56 386.85 64.27 386.85 65.13C386.85 65.15 386.85 65.22 386.85 65.36C387.03 64.49 387.96 60.14 389.63 52.3C394.68 51.62 397.48 51.23 398.04 51.16C394.12 69.57 391.95 79.79 391.51 81.83C391.36 82.39 391.28 83.01 391.28 83.65C391.28 84.4 391.46 84.94 391.82 85.27C392.18 85.59 392.77 85.75 393.6 85.75C394.67 85.75 395.59 85.3 396.37 84.38C397.14 83.48 397.76 82.26 398.21 80.75C398.45 80.75 400.36 80.75 400.59 80.75C398.28 87.53 394.48 90.92 389.18 90.92C387.62 90.92 386.37 90.51 385.4 89.67C384.44 88.84 383.84 87.62 383.62 86.04C382.63 87.54 381.45 88.8 380.06 89.78C378.68 90.77 377.06 91.26 375.2 91.26C373.05 91.26 371.25 90.52 369.81 89.04C368.37 87.56 367.66 85.26 367.66 82.11ZM383.56 81.04C383.56 81.02 383.56 80.92 383.56 80.75C385.22 72.95 386.16 68.61 386.34 67.75C386 66.42 385.22 65.76 384.01 65.76C382.49 65.76 381.14 66.64 379.92 68.4C378.71 70.16 377.76 72.28 377.08 74.76C376.4 77.24 376.06 79.42 376.06 81.32C376.06 83.21 376.33 84.42 376.88 84.95C377.43 85.49 378.11 85.75 378.9 85.75C379.81 85.75 380.73 85.34 381.65 84.5C382.58 83.67 383.22 82.52 383.56 81.04ZM397.3 87.48C396.7 86.37 396.4 85.21 396.4 83.99C396.4 82.74 396.69 81.65 397.27 80.72C397.86 79.8 398.57 79.12 399.41 78.71C400.88 76.06 402.17 73.38 403.26 70.67C404.37 67.96 405.4 65.04 406.39 61.9C407.23 61.79 413.95 60.87 414.8 60.76C414.99 65.61 415.31 70.85 415.76 76.49C415.95 78.76 416.04 80.41 416.04 81.43C416.04 83.74 415.46 85.64 414.28 87.11C413.11 88.59 411.66 89.65 409.94 90.29C408.22 90.94 406.46 91.26 404.69 91.26C402.87 91.26 401.33 90.91 400.08 90.2C398.83 89.51 397.91 88.6 397.3 87.48ZM407.81 81.49C407.81 80.36 407.7 78.76 407.47 76.72C407.09 72.41 406.85 69.51 406.72 68.03C405.82 71.02 404.29 74.6 402.13 78.76C403 79.22 403.43 79.89 403.43 80.75C403.43 81.47 403.2 82.11 402.73 82.69C402.25 83.25 401.66 83.54 400.93 83.54C400.14 83.54 399.63 83.29 399.41 82.8C399.41 84.16 399.68 85.17 400.23 85.81C400.77 86.45 401.66 86.77 402.87 86.77C404.27 86.77 405.44 86.36 406.39 85.53C407.34 84.69 407.81 83.35 407.81 81.49Z" id="bY7uttkFB"></path><path d="M49.85 26.2L49.95 26.25L50.02 26.3L50.06 26.34L50.11 26.38L50.15 26.42L50.2 26.45L50.24 26.48L50.29 26.52L50.34 26.55L50.39 26.57L50.43 26.6L50.48 26.62L50.52 26.64L50.57 26.65L50.61 26.66L50.65 26.67L50.69 26.68L50.72 26.68L50.76 26.68L50.79 26.68L50.92 26.67L51.06 26.7L51.19 26.77L51.32 26.88L51.45 27.03L51.59 27.21L51.72 27.44L51.85 27.7L51.98 28.01L52.11 28.35L52.24 28.73L52.37 29.15L52.5 29.62L52.63 30.12L52.76 30.66L52.89 31.25L53.02 31.88L53.15 32.54L53.94 36.64L53.94 36.64L58.85 62L58.85 62L60.13 68.58L60.27 69.35L60.41 70.05L60.53 70.7L60.64 71.31L60.74 71.88L60.83 72.39L60.91 72.86L60.98 73.3L61.04 73.69L61.1 74.05L61.14 74.38L61.17 74.69L61.2 74.96L61.22 75.2L61.23 75.42L61.23 75.62L61.22 75.8L61.21 75.96L61.19 76.11L61.17 76.25L61.15 76.33L61.13 76.42L61.11 76.51L61.08 76.59L61.06 76.67L61.03 76.74L61.01 76.82L60.98 76.89L60.95 76.96L60.92 77.02L60.89 77.08L60.86 77.14L60.83 77.19L60.8 77.24L60.77 77.28L60.74 77.31L60.71 77.34L60.68 77.36L60.66 77.38L60.63 77.39L60.61 77.39L60.58 77.4L60.55 77.41L60.52 77.43L60.49 77.45L60.46 77.47L60.43 77.49L60.39 77.52L60.36 77.54L60.33 77.57L60.29 77.6L60.26 77.64L60.23 77.67L60.19 77.7L60.16 77.74L60.13 77.78L60.1 77.82L60.07 77.85L60.04 77.89L60.01 77.93L59.74 78.08L59.11 78.28L58.17 78.54L56.96 78.84L55.5 79.17L53.85 79.53L52.04 79.93L50.11 80.32L48.1 80.72L46.04 81.13L44 81.52L41.98 81.89L40.04 82.24L38.21 82.57L36.55 82.84L35.07 83.07L33.83 83.25L32.86 83.36L32.21 83.4L31.9 83.37L31.86 83.34L31.82 83.32L31.78 83.29L31.73 83.27L31.69 83.25L31.64 83.23L31.6 83.21L31.55 83.19L31.51 83.17L31.46 83.16L31.42 83.14L31.38 83.13L31.33 83.12L31.29 83.11L31.25 83.1L31.22 83.1L31.18 83.1L31.15 83.09L31.12 83.1L31.1 83.1L31.03 83.09L30.95 83.04L30.92 83.01L30.89 83L30.11 82.47L29.71 81.7L29.72 81.64L29.64 81.66L27.03 68.15L27.03 68.15L26.91 67.56L26.45 65.12L26.45 65.12L22.12 42.8L22.12 42.8L21.33 38.69L21.2 38L21.09 37.36L20.99 36.75L20.91 36.19L20.84 35.67L20.79 35.19L20.75 34.75L20.73 34.35L20.73 33.99L20.74 33.66L20.77 33.38L20.81 33.13L20.87 32.91L20.95 32.74L21.04 32.59L21.15 32.48L21.28 32.4L21.42 32.36L21.46 32.35L21.49 32.34L21.53 32.33L21.56 32.31L21.59 32.3L21.62 32.28L21.65 32.26L21.67 32.24L21.7 32.22L21.72 32.19L21.74 32.17L21.75 32.15L21.77 32.12L21.78 32.1L21.78 32.07L21.79 32.05L21.79 32.03L21.79 32L21.78 31.97L21.79 31.94L21.79 31.91L21.8 31.88L21.82 31.84L21.84 31.79L21.86 31.75L21.89 31.71L21.92 31.67L21.95 31.63L21.99 31.59L22.03 31.55L22.07 31.51L22.12 31.47L22.17 31.43L22.22 31.39L22.27 31.36L22.33 31.32L22.43 31.28L22.64 31.21L22.94 31.14L23.34 31.04L23.82 30.93L24.38 30.8L25.02 30.66L25.75 30.51L26.54 30.34L27.4 30.17L28.33 29.98L29.31 29.78L30.35 29.57L31.45 29.36L32.58 29.13L33.76 28.9L34.98 28.67L36.23 28.43L38.18 28.06L39.94 27.73L41.51 27.44L42.9 27.18L44.13 26.96L45.2 26.77L46.13 26.6L46.93 26.46L47.61 26.35L48.17 26.27L48.63 26.21L49.02 26.17L49.31 26.15L49.54 26.15L49.72 26.17L49.85 26.2ZM43.71 72.87L43.33 73.18L43 73.53L42.65 74L42.46 74.44L42.4 74.89L42.46 75.41L43.16 76.78L44.39 77.47L45.74 77.37L46.89 76.41L47.29 75.41L47.28 74.45L46.86 73.6L46.04 72.94L45.6 72.74L45.14 72.6L44.72 72.52L44.38 72.52L44.07 72.64L43.71 72.87ZM25.09 41.51L30.13 67.56L30.13 67.56L30.93 71.69L56.55 66.74L55.87 63.22L55.87 63.22L50.83 37.18L50.83 37.18L49.94 32.56L24.32 37.52L25.09 41.51L25.09 41.51ZM43.98 41.68L44.27 41.94L44.6 42.27L44.96 42.65L45.33 43.05L45.72 43.47L46.1 43.91L46.49 44.35L46.85 44.77L47.17 45.19L47.46 45.56L47.7 45.89L47.88 46.16L47.99 46.37L48.02 46.49L48.02 46.53L48 46.56L47.98 46.6L47.94 46.65L47.91 46.69L47.86 46.74L47.81 46.79L47.76 46.84L47.7 46.89L47.63 46.94L47.56 47L47.49 47.05L47.41 47.1L47.33 47.16L47.25 47.21L47.16 47.26L47.07 47.31L46.94 47.38L46.82 47.46L46.71 47.53L46.61 47.61L46.52 47.7L46.44 47.79L46.37 47.91L46.3 48.02L46.23 48.16L46.17 48.3L46.11 48.47L46.06 48.66L46 48.88L45.95 49.12L45.9 49.38L45.84 49.68L45.78 50.01L45.74 50.24L45.69 50.52L45.63 50.81L45.57 51.13L45.51 51.47L45.44 51.84L45.37 52.22L45.29 52.62L45.21 53.03L45.13 53.46L45.05 53.89L44.97 54.32L44.88 54.75L44.8 55.19L44.71 55.62L44.63 56.05L44.55 56.46L43.74 60.7L40.49 61.34L37.38 56.28L37.09 55.78L36.79 55.31L36.51 54.84L36.23 54.39L35.96 53.95L35.69 53.53L35.44 53.11L35.21 52.73L34.99 52.37L34.79 52.04L34.61 51.74L34.44 51.46L34.3 51.23L34.18 51.02L34.08 50.86L34.01 50.73L33.96 50.65L33.91 50.58L33.86 50.51L33.81 50.44L33.75 50.39L33.7 50.35L33.64 50.31L33.57 50.28L33.51 50.25L33.44 50.23L33.36 50.22L33.27 50.21L33.18 50.21L33.08 50.21L32.97 50.22L32.86 50.23L32.73 50.25L32.6 50.28L32.49 50.29L32.39 50.31L32.29 50.32L32.19 50.33L32.1 50.33L32.01 50.33L31.92 50.33L31.84 50.32L31.77 50.31L31.7 50.3L31.63 50.28L31.57 50.26L31.52 50.24L31.47 50.21L31.43 50.18L31.4 50.15L31.38 50.11L31.35 49.97L31.36 49.73L31.41 49.4L31.5 49L31.62 48.54L31.76 48.04L31.93 47.5L32.1 46.94L32.29 46.39L32.49 45.84L32.68 45.32L32.88 44.83L33.06 44.41L33.24 44.05L33.4 43.77L33.53 43.58L33.63 43.51L33.76 43.54L33.95 43.66L34.19 43.86L34.49 44.13L34.82 44.46L35.18 44.83L35.55 45.25L35.95 45.68L36.33 46.13L36.7 46.58L37.05 47.01L37.37 47.43L37.65 47.82L37.88 48.16L38.05 48.44L38.16 48.66L38.18 48.8L38.17 48.84L38.16 48.88L38.14 48.91L38.11 48.95L38.08 48.99L38.05 49.03L38.01 49.07L37.98 49.1L37.93 49.14L37.89 49.17L37.84 49.2L37.79 49.23L37.74 49.25L37.69 49.28L37.64 49.3L37.58 49.31L37.53 49.33L37.48 49.34L37.42 49.35L37.37 49.37L37.33 49.38L37.28 49.4L37.24 49.42L37.2 49.44L37.16 49.46L37.13 49.49L37.1 49.51L37.08 49.53L37.05 49.56L37.04 49.58L37.02 49.61L37.02 49.63L37.01 49.66L37.02 49.68L37.03 49.72L37.06 49.79L37.1 49.88L37.16 50L37.23 50.14L37.31 50.3L37.41 50.49L37.51 50.7L37.63 50.92L37.75 51.15L37.89 51.4L38.03 51.67L38.18 51.94L38.33 52.23L38.5 52.52L38.66 52.82L38.83 53.14L39 53.45L39.17 53.75L39.34 54.06L39.51 54.37L39.68 54.67L39.85 54.97L40.01 55.26L40.16 55.54L40.31 55.82L40.45 56.08L40.58 56.32L40.71 56.55L40.82 56.75L40.92 56.94L41.03 57.11L41.1 57.25L41.17 57.37L41.74 58.4L42.35 53.71L42.41 53.26L42.47 52.8L42.54 52.36L42.6 51.93L42.66 51.52L42.72 51.12L42.77 50.74L42.83 50.37L42.89 50.04L42.94 49.73L42.99 49.44L43.03 49.19L43.07 48.97L43.11 48.78L43.14 48.62L43.17 48.51L43.2 48.43L43.22 48.36L43.25 48.29L43.26 48.23L43.27 48.17L43.27 48.13L43.26 48.09L43.24 48.06L43.21 48.04L43.17 48.02L43.12 48.01L43.06 48.01L42.98 48.01L42.9 48.02L42.8 48.03L42.68 48.05L42.55 48.07L42.4 48.1L42.3 48.12L42.19 48.14L42.09 48.15L41.99 48.15L41.9 48.16L41.81 48.16L41.73 48.15L41.65 48.15L41.57 48.14L41.5 48.12L41.44 48.1L41.38 48.08L41.33 48.06L41.28 48.03L41.24 48.01L41.21 47.97L41.18 47.94L41.16 47.89L41.16 47.81L41.16 47.7L41.17 47.58L41.19 47.43L41.22 47.26L41.26 47.08L41.3 46.87L41.35 46.65L41.41 46.42L41.48 46.17L41.55 45.91L41.63 45.64L41.72 45.36L41.81 45.07L41.9 44.78L42 44.48L42.1 44.19L42.2 43.9L42.31 43.62L42.41 43.34L42.51 43.08L42.61 42.84L42.7 42.6L42.8 42.38L42.89 42.18L42.98 41.99L43.06 41.83L43.14 41.69L43.21 41.56L43.27 41.47L43.33 41.39L43.38 41.34L43.43 41.32L43.54 41.35L43.74 41.48L43.98 41.68ZM32.79 31.36L31.45 31.64L30.54 31.87L30.17 31.98L30.06 32.3L30.1 32.69L30.24 33.07L30.45 33.38L30.74 33.53L32.21 33.36L35.11 32.84L38.48 32.18L41.3 31.54L42.6 31.14L42.67 31.06L42.71 30.92L42.74 30.73L42.73 30.5L42.71 30.21L42.5 29.57L36.4 30.66L34.48 31.02L32.79 31.36Z" id="c8SPf6P1g"></path><path d="M49.85 26.2L49.95 26.25L50.02 26.3L50.06 26.34L50.11 26.38L50.15 26.42L50.2 26.45L50.24 26.48L50.29 26.52L50.34 26.55L50.39 26.57L50.43 26.6L50.48 26.62L50.52 26.64L50.57 26.65L50.61 26.66L50.65 26.67L50.69 26.68L50.72 26.68L50.76 26.68L50.79 26.68L50.92 26.67L51.06 26.7L51.19 26.77L51.32 26.88L51.45 27.03L51.59 27.21L51.72 27.44L51.85 27.7L51.98 28.01L52.11 28.35L52.24 28.73L52.37 29.15L52.5 29.62L52.63 30.12L52.76 30.66L52.89 31.25L53.02 31.88L53.15 32.54L53.94 36.64L53.94 36.64L58.85 62L58.85 62L60.13 68.58L60.27 69.35L60.41 70.05L60.53 70.7L60.64 71.31L60.74 71.88L60.83 72.39L60.91 72.86L60.98 73.3L61.04 73.69L61.1 74.05L61.14 74.38L61.17 74.69L61.2 74.96L61.22 75.2L61.23 75.42L61.23 75.62L61.22 75.8L61.21 75.96L61.19 76.11L61.17 76.25L61.15 76.33L61.13 76.42L61.11 76.51L61.08 76.59L61.06 76.67L61.03 76.74L61.01 76.82L60.98 76.89L60.95 76.96L60.92 77.02L60.89 77.08L60.86 77.14L60.83 77.19L60.8 77.24L60.77 77.28L60.74 77.31L60.71 77.34L60.68 77.36L60.66 77.38L60.63 77.39L60.61 77.39L60.58 77.4L60.55 77.41L60.52 77.43L60.49 77.45L60.46 77.47L60.43 77.49L60.39 77.52L60.36 77.54L60.33 77.57L60.29 77.6L60.26 77.64L60.23 77.67L60.19 77.7L60.16 77.74L60.13 77.78L60.1 77.82L60.07 77.85L60.04 77.89L60.01 77.93L59.74 78.08L59.11 78.28L58.17 78.54L56.96 78.84L55.5 79.17L53.85 79.53L52.04 79.93L50.11 80.32L48.1 80.72L46.04 81.13L44 81.52L41.98 81.89L40.04 82.24L38.21 82.57L36.55 82.84L35.07 83.07L33.83 83.25L32.86 83.36L32.21 83.4L31.9 83.37L31.86 83.34L31.82 83.32L31.78 83.29L31.73 83.27L31.69 83.25L31.64 83.23L31.6 83.21L31.55 83.19L31.51 83.17L31.46 83.16L31.42 83.14L31.38 83.13L31.33 83.12L31.29 83.11L31.25 83.1L31.22 83.1L31.18 83.1L31.15 83.09L31.12 83.1L31.1 83.1L31.03 83.09L30.95 83.04L30.92 83.01L30.89 83L30.11 82.47L29.71 81.7L29.72 81.64L29.64 81.66L27.03 68.15L27.03 68.15L26.91 67.56L26.45 65.12L26.45 65.12L22.12 42.8L22.12 42.8L21.33 38.69L21.2 38L21.09 37.36L20.99 36.75L20.91 36.19L20.84 35.67L20.79 35.19L20.75 34.75L20.73 34.35L20.73 33.99L20.74 33.66L20.77 33.38L20.81 33.13L20.87 32.91L20.95 32.74L21.04 32.59L21.15 32.48L21.28 32.4L21.42 32.36L21.46 32.35L21.49 32.34L21.53 32.33L21.56 32.31L21.59 32.3L21.62 32.28L21.65 32.26L21.67 32.24L21.7 32.22L21.72 32.19L21.74 32.17L21.75 32.15L21.77 32.12L21.78 32.1L21.78 32.07L21.79 32.05L21.79 32.03L21.79 32L21.78 31.97L21.79 31.94L21.79 31.91L21.8 31.88L21.82 31.84L21.84 31.79L21.86 31.75L21.89 31.71L21.92 31.67L21.95 31.63L21.99 31.59L22.03 31.55L22.07 31.51L22.12 31.47L22.17 31.43L22.22 31.39L22.27 31.36L22.33 31.32L22.43 31.28L22.64 31.21L22.94 31.14L23.34 31.04L23.82 30.93L24.38 30.8L25.02 30.66L25.75 30.51L26.54 30.34L27.4 30.17L28.33 29.98L29.31 29.78L30.35 29.57L31.45 29.36L32.58 29.13L33.76 28.9L34.98 28.67L36.23 28.43L38.18 28.06L39.94 27.73L41.51 27.44L42.9 27.18L44.13 26.96L45.2 26.77L46.13 26.6L46.93 26.46L47.61 26.35L48.17 26.27L48.63 26.21L49.02 26.17L49.31 26.15L49.54 26.15L49.72 26.17L49.85 26.2ZM43.71 72.87L43.33 73.18L43 73.53L42.65 74L42.46 74.44L42.4 74.89L42.46 75.41L43.16 76.78L44.39 77.47L45.74 77.37L46.89 76.41L47.29 75.41L47.28 74.45L46.86 73.6L46.04 72.94L45.6 72.74L45.14 72.6L44.72 72.52L44.38 72.52L44.07 72.64L43.71 72.87ZM25.09 41.51L30.13 67.56L30.13 67.56L30.93 71.69L56.55 66.74L55.87 63.22L55.87 63.22L50.83 37.18L50.83 37.18L49.94 32.56L24.32 37.52L25.09 41.51L25.09 41.51ZM43.98 41.68L44.27 41.94L44.6 42.27L44.96 42.65L45.33 43.05L45.72 43.47L46.1 43.91L46.49 44.35L46.85 44.77L47.17 45.19L47.46 45.56L47.7 45.89L47.88 46.16L47.99 46.37L48.02 46.49L48.02 46.53L48 46.56L47.98 46.6L47.94 46.65L47.91 46.69L47.86 46.74L47.81 46.79L47.76 46.84L47.7 46.89L47.63 46.94L47.56 47L47.49 47.05L47.41 47.1L47.33 47.16L47.25 47.21L47.16 47.26L47.07 47.31L46.94 47.38L46.82 47.46L46.71 47.53L46.61 47.61L46.52 47.7L46.44 47.79L46.37 47.91L46.3 48.02L46.23 48.16L46.17 48.3L46.11 48.47L46.06 48.66L46 48.88L45.95 49.12L45.9 49.38L45.84 49.68L45.78 50.01L45.74 50.24L45.69 50.52L45.63 50.81L45.57 51.13L45.51 51.47L45.44 51.84L45.37 52.22L45.29 52.62L45.21 53.03L45.13 53.46L45.05 53.89L44.97 54.32L44.88 54.75L44.8 55.19L44.71 55.62L44.63 56.05L44.55 56.46L43.74 60.7L40.49 61.34L37.38 56.28L37.09 55.78L36.79 55.31L36.51 54.84L36.23 54.39L35.96 53.95L35.69 53.53L35.44 53.11L35.21 52.73L34.99 52.37L34.79 52.04L34.61 51.74L34.44 51.46L34.3 51.23L34.18 51.02L34.08 50.86L34.01 50.73L33.96 50.65L33.91 50.58L33.86 50.51L33.81 50.44L33.75 50.39L33.7 50.35L33.64 50.31L33.57 50.28L33.51 50.25L33.44 50.23L33.36 50.22L33.27 50.21L33.18 50.21L33.08 50.21L32.97 50.22L32.86 50.23L32.73 50.25L32.6 50.28L32.49 50.29L32.39 50.31L32.29 50.32L32.19 50.33L32.1 50.33L32.01 50.33L31.92 50.33L31.84 50.32L31.77 50.31L31.7 50.3L31.63 50.28L31.57 50.26L31.52 50.24L31.47 50.21L31.43 50.18L31.4 50.15L31.38 50.11L31.35 49.97L31.36 49.73L31.41 49.4L31.5 49L31.62 48.54L31.76 48.04L31.93 47.5L32.1 46.94L32.29 46.39L32.49 45.84L32.68 45.32L32.88 44.83L33.06 44.41L33.24 44.05L33.4 43.77L33.53 43.58L33.63 43.51L33.76 43.54L33.95 43.66L34.19 43.86L34.49 44.13L34.82 44.46L35.18 44.83L35.55 45.25L35.95 45.68L36.33 46.13L36.7 46.58L37.05 47.01L37.37 47.43L37.65 47.82L37.88 48.16L38.05 48.44L38.16 48.66L38.18 48.8L38.17 48.84L38.16 48.88L38.14 48.91L38.11 48.95L38.08 48.99L38.05 49.03L38.01 49.07L37.98 49.1L37.93 49.14L37.89 49.17L37.84 49.2L37.79 49.23L37.74 49.25L37.69 49.28L37.64 49.3L37.58 49.31L37.53 49.33L37.48 49.34L37.42 49.35L37.37 49.37L37.33 49.38L37.28 49.4L37.24 49.42L37.2 49.44L37.16 49.46L37.13 49.49L37.1 49.51L37.08 49.53L37.05 49.56L37.04 49.58L37.02 49.61L37.02 49.63L37.01 49.66L37.02 49.68L37.03 49.72L37.06 49.79L37.1 49.88L37.16 50L37.23 50.14L37.31 50.3L37.41 50.49L37.51 50.7L37.63 50.92L37.75 51.15L37.89 51.4L38.03 51.67L38.18 51.94L38.33 52.23L38.5 52.52L38.66 52.82L38.83 53.14L39 53.45L39.17 53.75L39.34 54.06L39.51 54.37L39.68 54.67L39.85 54.97L40.01 55.26L40.16 55.54L40.31 55.82L40.45 56.08L40.58 56.32L40.71 56.55L40.82 56.75L40.92 56.94L41.03 57.11L41.1 57.25L41.17 57.37L41.74 58.4L42.35 53.71L42.41 53.26L42.47 52.8L42.54 52.36L42.6 51.93L42.66 51.52L42.72 51.12L42.77 50.74L42.83 50.37L42.89 50.04L42.94 49.73L42.99 49.44L43.03 49.19L43.07 48.97L43.11 48.78L43.14 48.62L43.17 48.51L43.2 48.43L43.22 48.36L43.25 48.29L43.26 48.23L43.27 48.17L43.27 48.13L43.26 48.09L43.24 48.06L43.21 48.04L43.17 48.02L43.12 48.01L43.06 48.01L42.98 48.01L42.9 48.02L42.8 48.03L42.68 48.05L42.55 48.07L42.4 48.1L42.3 48.12L42.19 48.14L42.09 48.15L41.99 48.15L41.9 48.16L41.81 48.16L41.73 48.15L41.65 48.15L41.57 48.14L41.5 48.12L41.44 48.1L41.38 48.08L41.33 48.06L41.28 48.03L41.24 48.01L41.21 47.97L41.18 47.94L41.16 47.89L41.16 47.81L41.16 47.7L41.17 47.58L41.19 47.43L41.22 47.26L41.26 47.08L41.3 46.87L41.35 46.65L41.41 46.42L41.48 46.17L41.55 45.91L41.63 45.64L41.72 45.36L41.81 45.07L41.9 44.78L42 44.48L42.1 44.19L42.2 43.9L42.31 43.62L42.41 43.34L42.51 43.08L42.61 42.84L42.7 42.6L42.8 42.38L42.89 42.18L42.98 41.99L43.06 41.83L43.14 41.69L43.21 41.56L43.27 41.47L43.33 41.39L43.38 41.34L43.43 41.32L43.54 41.35L43.74 41.48L43.98 41.68ZM32.79 31.36L31.45 31.64L30.54 31.87L30.17 31.98L30.06 32.3L30.1 32.69L30.24 33.07L30.45 33.38L30.74 33.53L32.21 33.36L35.11 32.84L38.48 32.18L41.3 31.54L42.6 31.14L42.67 31.06L42.71 30.92L42.74 30.73L42.73 30.5L42.71 30.21L42.5 29.57L36.4 30.66L34.48 31.02L32.79 31.36Z" id="axX5Oxv5i"></path></defs><g><g><use xlink:href="#a4lZKH86zt" opacity="1" fill="#a2deaf" fill-opacity="1"></use><g><use xlink:href="#a4lZKH86zt" opacity="1" fill-opacity="0" stroke="#000000" stroke-width="1" stroke-opacity="0"></use></g></g><g><use xlink:href="#d1A39MrFNc" opacity="1" fill="#000000" fill-opacity="0"></use><g><use xlink:href="#d1A39MrFNc" opacity="1" fill-opacity="0" stroke="#000000" stroke-width="1" stroke-opacity="0"></use></g></g><g><use xlink:href="#e7JMS1Ti4j" opacity="1" fill="#114e4e" fill-opacity="1"></use><g><use xlink:href="#e7JMS1Ti4j" opacity="1" fill-opacity="0" stroke="#000000" stroke-width="1" stroke-opacity="0"></use></g></g><g><use xlink:href="#a9hIqkrEdg" opacity="1" fill="#000000" fill-opacity="0"></use><g><use xlink:href="#a9hIqkrEdg" opacity="1" fill-opacity="0" stroke="#000000" stroke-width="1" stroke-opacity="0"></use></g></g><g><use xlink:href="#a8Idcz5W7y" opacity="1" fill="#ffffff" fill-opacity="1"></use><g><use xlink:href="#a8Idcz5W7y" opacity="1" fill-opacity="0" stroke="#000000" stroke-width="1" stroke-opacity="0"></use></g></g><g><use xlink:href="#a1fkDqfSKV" opacity="1" fill="#000000" fill-opacity="0"></use><g><use xlink:href="#a1fkDqfSKV" opacity="1" fill-opacity="0" stroke="#000000" stroke-width="1" stroke-opacity="0"></use></g></g><g><use xlink:href="#aDSDaP8J6" opacity="1" fill="#e17334" fill-opacity="1"></use><g><use xlink:href="#aDSDaP8J6" opacity="1" fill-opacity="0" stroke="#000000" stroke-width="1" stroke-opacity="0"></use></g></g><g><use xlink:href="#c59Is8Zx0W" opacity="1" fill="#000000" fill-opacity="0"></use><g><use xlink:href="#c59Is8Zx0W" opacity="1" fill-opacity="0" stroke="#000000" stroke-width="1" stroke-opacity="0"></use></g></g><g><use xlink:href="#avRm8MM4e" opacity="1" fill="#a2deaf" fill-opacity="1"></use><g><use xlink:href="#avRm8MM4e" opacity="1" fill-opacity="0" stroke="#000000" stroke-width="1" stroke-opacity="0"></use></g></g><g><use xlink:href="#c1ijhULvf" opacity="1" fill="#000000" fill-opacity="0"></use><g><use xlink:href="#c1ijhULvf" opacity="1" fill-opacity="0" stroke="#000000" stroke-width="1" stroke-opacity="0"></use></g></g><g><use xlink:href="#m1F7PVYxh" opacity="1" fill="#a2deaf" fill-opacity="1"></use><g><use xlink:href="#m1F7PVYxh" opacity="1" fill-opacity="0" stroke="#000000" stroke-width="1" stroke-opacity="0"></use></g></g><g><use xlink:href="#d5be9ZhPk" opacity="1" fill="#000000" fill-opacity="0"></use><g><use xlink:href="#d5be9ZhPk" opacity="1" fill-opacity="0" stroke="#000000" stroke-width="1" stroke-opacity="0"></use></g></g><g><use xlink:href="#anKZpSANb" opacity="1" fill="#114e4e" fill-opacity="1"></use><g><use xlink:href="#anKZpSANb" opacity="1" fill-opacity="0" stroke="#000000" stroke-width="1" stroke-opacity="0"></use></g></g><g><use xlink:href="#a16H4klfpf" opacity="1" fill="#000000" fill-opacity="0"></use><g><use xlink:href="#a16H4klfpf" opacity="1" fill-opacity="0" stroke="#000000" stroke-width="1" stroke-opacity="0"></use></g></g><g><use xlink:href="#k4cSbABDF" opacity="1" fill="#114e4e" fill-opacity="1"></use><g><use xlink:href="#k4cSbABDF" opacity="1" fill-opacity="0" stroke="#000000" stroke-width="1" stroke-opacity="0"></use></g></g><g><use xlink:href="#bY7uttkFB" opacity="1" fill="#000000" fill-opacity="0"></use><g><use xlink:href="#bY7uttkFB" opacity="1" fill-opacity="0" stroke="#000000" stroke-width="1" stroke-opacity="0"></use></g></g><g><use xlink:href="#c8SPf6P1g" opacity="1" fill="#a2deaf" fill-opacity="1"></use><g><use xlink:href="#c8SPf6P1g" opacity="1" fill-opacity="0" stroke="#000000" stroke-width="1" stroke-opacity="0"></use></g></g><g><use xlink:href="#axX5Oxv5i" opacity="1" fill="#000000" fill-opacity="0"></use><g><use xlink:href="#axX5Oxv5i" opacity="1" fill-opacity="0" stroke="#000000" stroke-width="1" stroke-opacity="0"></use></g></g></g></svg>