<?xml version="1.0" encoding="UTF-8" standalone="no"?>
<!DOCTYPE svg PUBLIC "-//W3C//DTD SVG 1.1//EN" "http://www.w3.org/Graphics/SVG/1.1/DTD/svg11.dtd">
<svg version="1.1" xmlns="http://www.w3.org/2000/svg" xmlns:xlink="http://www.w3.org/1999/xlink" preserveAspectRatio="xMidYMid meet" viewBox="12.174825174825195 12.255571986796514 31.03030303030308 48.486601762104684" width="27.03" height="44.49"><defs><path d="M14.61 13.89C14.61 14 14.44 14.12 14.25 14.12C13.49 14.12 13.17 15.66 13.17 19.26C13.17 19.49 13.17 20.65 13.17 22.73L14.49 22.73L15.81 22.73L15.81 20.75L15.81 18.77L26.69 18.77L37.57 18.77L37.57 20.75L37.57 22.73L38.89 22.73L40.21 22.73C40.21 20.65 40.21 19.49 40.21 19.26C40.21 15.8 39.89 14.12 39.2 14.12C39.06 14.12 38.79 13.93 38.63 13.7C38.36 13.33 37.48 13.31 27 13.26C20.54 13.24 15.45 13.31 15.16 13.42C14.85 13.54 14.61 13.75 14.61 13.89ZM31.79 16.47C31.43 16.7 22.26 16.75 21.69 16.54C21.31 16.4 21.16 15.49 21.48 15.19C21.57 15.12 23.96 15.08 26.79 15.1C27.13 15.1 28.85 15.13 31.95 15.17L32.02 15.73C31.99 16.16 31.91 16.41 31.79 16.47Z" id="a2d2jPWtLt"></path><path d="M13.17 44.65L14.49 44.65L15.81 44.65L15.81 33.69L15.81 22.73L14.49 22.73L13.17 22.73L13.17 33.69L13.17 44.65Z" id="b3UIj0R0hf"></path><path d="M27.92 30.45C27.99 30.64 28.37 30.78 28.9 30.78C29.64 30.78 29.71 30.83 29.5 31.18C29.36 31.41 28.66 33.27 27.97 35.34C27.89 35.59 27.47 36.83 26.72 39.06C26.54 38.51 26.43 38.2 26.41 38.13C26.25 37.6 25.7 35.88 25.17 34.32C24.67 32.73 24.24 31.34 24.24 31.22C24.24 31.11 24.45 31.01 24.72 31.01C24.98 31.01 25.27 30.85 25.34 30.69C25.5 30.24 22.87 25.66 22.44 25.66C22.01 25.66 19.38 30.24 19.55 30.69C19.62 30.87 20 31.01 20.53 31.01C21.2 31.01 21.41 31.13 21.58 31.52C21.68 31.83 22.54 34.13 23.5 36.64C23.61 36.95 24.19 38.49 25.24 41.25L26.63 41.25L27.99 41.25C28.8 39.25 29.24 38.15 29.33 37.92C30.07 36.11 30.98 33.83 31.37 32.87C31.96 31.32 32.13 31.11 32.85 30.87C33.3 30.73 33.71 30.5 33.76 30.36C33.88 29.97 31.2 25.43 30.81 25.43C30.62 25.43 29.88 26.48 29.14 27.78C28.4 29.06 27.85 30.27 27.92 30.45Z" id="f2NQqcGMI"></path><path d="M14.13 56.94C14.28 56.94 14.56 57.1 14.75 57.29C15.3 57.82 38.08 57.82 38.63 57.29C38.82 57.1 39.08 56.94 39.22 56.94C39.37 56.94 39.65 56.56 39.85 56.1C40.13 55.42 40.21 54.12 40.21 49.7C40.21 49.33 40.21 47.48 40.21 44.14L38.89 44.14L37.57 44.14L37.57 45.88L37.57 47.63L26.69 47.63L15.81 47.63L15.81 45.88L15.81 44.14L14.61 44.14L13.41 44.14L13.41 49.93C13.51 54.6 13.75 56.94 14.13 56.94ZM28.13 53.98C26.83 55.33 24.66 54.38 24.66 52.47C24.66 51.82 24.82 51.49 25.4 51.03C25.8 50.7 26.38 50.42 26.69 50.42C27 50.42 27.58 50.7 27.98 51.03C28.96 51.82 29.01 53.03 28.13 53.98Z" id="a1g26MjYzf"></path><path d="M37.57 44.47L38.89 44.47L40.21 44.47L40.21 33.51L40.21 22.56L38.89 22.56L37.57 22.56L37.57 33.51L37.57 44.47Z" id="c213v1CpW9"></path><path d="M13.23 42.66L14.36 42.66L14.36 56.62L13.23 56.62L13.23 42.66Z" id="b2ap65rLBP"></path><path d="M17.99 56.55C18.01 57.18 17 57.71 15.75 57.74C14.5 57.77 13.47 57.28 13.46 56.66C13.44 56.03 14.44 55.5 15.7 55.47C16.95 55.44 17.97 55.92 17.99 56.55Z" id="cojAlt4hf"></path><path d="M15.81 56.86L22.92 56.86L22.92 57.69L15.81 57.69L15.81 56.86Z" id="b5vVLVzezu"></path></defs><g><g><use xlink:href="#a2d2jPWtLt" opacity="1" fill="#000000" fill-opacity="1"></use><g><use xlink:href="#a2d2jPWtLt" opacity="1" fill-opacity="0" stroke="#000000" stroke-width="1" stroke-opacity="0"></use></g></g><g><use xlink:href="#b3UIj0R0hf" opacity="1" fill="#000000" fill-opacity="1"></use><g><use xlink:href="#b3UIj0R0hf" opacity="1" fill-opacity="0" stroke="#000000" stroke-width="1" stroke-opacity="0"></use></g></g><g><use xlink:href="#f2NQqcGMI" opacity="1" fill="#000000" fill-opacity="1"></use><g><use xlink:href="#f2NQqcGMI" opacity="1" fill-opacity="0" stroke="#000000" stroke-width="1" stroke-opacity="0"></use></g></g><g><use xlink:href="#a1g26MjYzf" opacity="1" fill="#000000" fill-opacity="1"></use><g><use xlink:href="#a1g26MjYzf" opacity="1" fill-opacity="0" stroke="#000000" stroke-width="1" stroke-opacity="0"></use></g></g><g><use xlink:href="#c213v1CpW9" opacity="1" fill="#000000" fill-opacity="1"></use><g><use xlink:href="#c213v1CpW9" opacity="1" fill-opacity="0" stroke="#000000" stroke-width="1" stroke-opacity="0"></use></g></g><g><use xlink:href="#b2ap65rLBP" opacity="1" fill="#000000" fill-opacity="1"></use></g><g><use xlink:href="#cojAlt4hf" opacity="1" fill="#000000" fill-opacity="1"></use></g><g><use xlink:href="#b5vVLVzezu" opacity="1" fill="#000000" fill-opacity="1"></use></g></g></svg>